<?xml version="1.0" encoding="utf-8"?>
<svg xmlns="http://www.w3.org/2000/svg" width="1024" height="1024" viewBox="0 0 1024 1024" version="1.1">
  <path d="M 335.55 0.879 L 336.5 1.758 L 340.25 2.957 L 344 4.155 L 344 4.684 L 344 5.212 L 341.152 8.856 L 338.304 12.5 L 334.212 19.337 L 330.121 26.173 L 329.432 29.309 L 328.744 32.444 L 332.994 36.105 L 337.245 39.765 L 335.954 44.802 L 334.664 49.838 L 336.355 52.419 L 338.046 55 L 341.573 55 L 345.099 55 L 348.263 53.364 L 351.426 51.728 L 352.463 53.535 L 353.5 55.342 L 356.841 59.143 L 360.182 62.943 L 363.591 63.583 L 367 64.223 L 370.56 63.555 L 374.119 62.887 L 378.071 59.317 L 382.023 55.747 L 386.396 56.971 L 390.77 58.195 L 395.234 56.221 L 399.697 54.246 L 403.017 49.123 L 406.337 44 L 410.628 44 L 414.918 44 L 422.709 42.869 L 430.5 41.738 L 431.75 40.747 L 433 39.755 L 433 37.466 L 433 35.178 L 429.923 32.589 L 426.847 30 L 425.108 30 L 423.37 30 L 421.697 26.49 L 420.023 22.98 L 416.011 18.628 L 412 14.276 L 412 13.098 L 412 11.92 L 410.023 8.044 L 408.045 4.168 L 405.118 2.084 L 402.191 0 L 395.23 0 L 388.27 0 L 385.628 2.078 L 382.987 4.155 L 383.35 10.648 L 383.712 17.141 L 385.106 18.505 L 386.5 19.868 L 389.235 20.539 L 391.97 21.209 L 393.013 18.466 L 394.056 15.723 L 393.534 15.201 L 393.012 14.679 L 391.025 16.477 L 389.038 18.276 L 387.415 16.93 L 385.793 15.583 L 386.301 11.792 L 386.81 8 L 385.905 7.441 L 385 6.882 L 385 5.905 L 385 4.929 L 389.583 2.964 L 394.166 1 L 396.833 1.007 L 399.5 1.013 L 402.359 2.898 L 405.217 4.783 L 407.102 7.641 L 408.987 10.5 L 408.993 11.75 L 409 13 L 404.455 13 L 399.909 13 L 397.455 15.455 L 395 17.909 L 395 20.232 L 395 22.555 L 396.597 24.834 L 398.193 27.114 L 400.347 26.807 L 402.5 26.5 L 402.846 24.048 L 403.192 21.596 L 401.609 22.91 L 400.025 24.224 L 398.513 23.643 L 397 23.063 L 397 21.486 L 397 19.909 L 399.455 17.455 L 401.909 15 L 404.705 15.004 L 407.5 15.007 L 410.72 16.971 L 413.94 18.934 L 416.97 23.117 L 420 27.3 L 420 28.15 L 420 29 L 417.75 29.015 L 415.5 29.031 L 414.122 29.904 L 412.744 30.776 L 413.433 31.891 L 414.121 33.005 L 416.224 31.88 L 418.327 30.755 L 423.667 31.95 L 429.007 33.145 L 430.081 35.151 L 431.154 37.156 L 430.584 38.642 L 430.014 40.128 L 426.757 39.814 L 423.5 39.5 L 423.872 38 L 424.244 36.5 L 424.768 34.637 L 425.293 32.773 L 423.04 33.979 L 420.787 35.184 L 421.343 37.963 L 421.898 40.742 L 417.31 41.371 L 412.721 42 L 408.811 42 L 404.901 42 L 401.95 40.474 L 399 38.949 L 399 37.033 L 399 35.118 L 398.007 34.505 L 397.015 33.891 L 393.257 33.464 L 389.5 33.037 L 385.442 32.432 L 381.383 31.826 L 377.692 36.332 L 374 40.837 L 374 43.884 L 374 46.93 L 377.224 50.602 L 380.448 54.274 L 376.624 57.58 L 372.8 60.885 L 369.9 61.522 L 367 62.159 L 364.056 61.512 L 361.111 60.866 L 357.556 56.93 L 354 52.994 L 354 51.693 L 354 50.392 L 357.519 46.981 L 361.039 43.57 L 362.039 39.856 L 363.039 36.142 L 361.449 31.821 L 359.859 27.5 L 359.983 22.198 L 360.107 16.895 L 357.123 12.045 L 354.138 7.195 L 354.736 6.597 L 355.333 6 L 357.707 6 L 360.08 6 L 364.137 3.93 L 368.194 1.86 L 369.567 2.387 L 370.94 2.914 L 371.58 5.464 L 372.22 8.015 L 370.637 10.431 L 369.053 12.848 L 367.027 13.492 L 365 14.135 L 365 15.067 L 365 16 L 366.577 16 L 368.154 16 L 371.077 13.077 L 374 10.154 L 374 7.712 L 374 5.27 L 371.927 2.635 L 369.855 0 L 367.139 0 L 364.423 0 L 360.5 2 L 356.577 4 L 353.989 4 L 351.4 4 L 350.313 2.913 L 349.226 1.826 L 348.577 2.875 L 347.929 3.925 L 345.464 2.802 L 343 1.679 L 343 0.839 L 343 0 L 338.8 0 L 334.6 0 L 335.55 0.879 M 452 4.895 L 452 9.789 L 453.983 16.145 L 455.967 22.5 L 459.761 27.5 L 463.555 32.5 L 468.508 35.829 L 473.462 39.158 L 476.468 38.556 L 479.473 37.955 L 480.804 36.625 L 482.135 35.294 L 483.377 31.679 L 484.62 28.064 L 492.432 21.282 L 500.244 14.5 L 502.372 13.023 L 504.5 11.547 L 511.5 6.023 L 518.5 0.5 L 516.251 0.181 L 514.002 -0.139 L 508.928 4.681 L 503.853 9.5 L 502.927 9.833 L 502.001 10.166 L 501.428 8.333 L 500.854 6.5 L 499.443 3.25 L 498.032 0 L 496.361 0 L 494.69 0 L 496.388 1.876 L 498.085 3.752 L 498.636 7.146 L 499.187 10.54 L 496.457 13.27 L 493.727 16 L 492.114 16.118 L 490.5 16.237 L 489 16.028 L 487.5 15.819 L 485.635 14.16 L 483.77 12.5 L 482.9 10.223 L 482.029 7.945 L 483.397 3.973 L 484.766 0 L 483.461 0 L 482.155 0 L 481 3.5 L 479.845 7 L 480.989 10.467 L 482.134 13.935 L 485.143 16.467 L 488.153 19 L 489.699 19 L 491.245 19 L 489.961 20.547 L 488.678 22.093 L 485.878 24.087 L 483.078 26.08 L 477.764 21.79 L 472.45 17.5 L 470.028 14.604 L 467.607 11.709 L 467.18 5.812 L 466.754 -0.085 L 465.627 0.286 L 464.5 0.657 L 464.177 2.852 L 463.855 5.047 L 465.538 10.116 L 467.222 15.185 L 470.861 18.479 L 474.5 21.774 L 478.294 25.137 L 482.088 28.5 L 480.921 31.821 L 479.755 35.143 L 477.377 36.047 L 475 36.95 L 472.611 36.042 L 470.222 35.134 L 466.698 32.039 L 463.173 28.945 L 460.136 24.212 L 457.1 19.48 L 455.55 13.53 L 454 7.58 L 454 3.79 L 454 0 L 453 0 L 452 0 L 452 4.895 M 345.263 8.573 L 342.026 11.125 L 337.013 19.27 L 332 27.416 L 332 30.185 L 332 32.954 L 334.541 34.619 L 337.081 36.283 L 338.114 38.214 L 339.148 40.145 L 337.901 45.011 L 336.653 49.877 L 337.949 51.439 L 339.245 53 L 341.662 53 L 344.08 53 L 348.29 50.892 L 352.5 48.784 L 355.731 45.714 L 358.962 42.644 L 360.063 39.308 L 361.165 35.971 L 359.13 31.736 L 357.096 27.5 L 357.658 23.413 L 358.22 19.325 L 356.492 15.913 L 354.764 12.5 L 352.331 9.25 L 349.898 6 L 349.199 6.011 L 348.5 6.022 L 345.263 8.573 M 238.653 7.681 L 238 8.333 L 238.033 18.417 L 238.065 28.5 L 239.88 33.5 L 241.695 38.5 L 242.454 40.25 L 243.214 42 L 237.607 42 L 232 42 L 232 43.845 L 232 45.69 L 235.837 51.595 L 239.673 57.5 L 243.087 60.838 L 246.5 64.177 L 250.443 66.207 L 254.386 68.237 L 260.443 68.329 L 266.5 68.42 L 271.793 66.616 L 277.086 64.811 L 286.37 69.512 L 295.654 74.213 L 297.577 73.84 L 299.5 73.467 L 291.5 69.673 L 283.5 65.88 L 281.278 64.435 L 279.055 62.99 L 283.433 58.955 L 287.81 54.921 L 289.405 51.559 L 291 48.198 L 291 43.567 L 291 38.936 L 289.556 35.479 L 288.111 32.022 L 284.867 27.307 L 281.623 22.592 L 279.457 18.104 L 277.291 13.616 L 274.188 18.058 L 271.085 22.5 L 269.674 24.479 L 268.264 26.458 L 263.635 21.895 L 259.006 17.331 L 249.156 12.18 L 239.305 7.028 L 238.653 7.681 M 184 12.558 L 178.5 15.957 L 173.774 20.013 L 169.048 24.069 L 166.169 28.285 L 163.289 32.5 L 161.969 36.5 L 160.648 40.5 L 160.074 46.768 L 159.5 53.035 L 155 46.346 L 150.5 39.656 L 149.5 39.578 L 148.5 39.5 L 144 48.431 L 139.5 57.363 L 139.503 66.931 L 139.506 76.5 L 141.768 80.739 L 144.03 84.978 L 148.093 91.239 L 152.156 97.5 L 151.666 100.5 L 151.175 103.5 L 145.726 111.607 L 140.277 119.715 L 137.572 127.607 L 134.868 135.5 L 134.305 143.05 L 133.742 150.6 L 135.397 153.8 L 137.051 157 L 139.303 157 L 141.555 157 L 143.762 155.454 L 145.97 153.908 L 148.532 149.535 L 151.095 145.163 L 153.084 138.331 L 155.074 131.5 L 155.685 121.3 L 156.296 111.1 L 154.563 108.456 L 152.83 105.812 L 153.403 103.529 L 153.977 101.245 L 156.484 99.603 L 158.991 97.96 L 166.941 96.452 L 174.89 94.944 L 178.408 93.474 L 181.926 92.004 L 185.376 88.975 L 188.827 85.945 L 191.849 81.222 L 194.87 76.5 L 197.385 68.776 L 199.9 61.053 L 200.578 57.435 L 201.257 53.818 L 194.575 54.159 L 187.893 54.5 L 188.359 53 L 188.825 51.5 L 191.01 45.5 L 193.195 39.5 L 193.725 34.371 L 194.255 29.243 L 193.015 19.121 L 191.775 9 L 190.638 9.079 L 189.5 9.159 L 184 12.558 M 240.241 21.25 L 240.745 31.5 L 242.774 36.103 L 244.803 40.706 L 248.057 44.412 L 251.311 48.118 L 254.905 49.917 L 258.5 51.716 L 261.25 52.377 L 264 53.038 L 264 52.158 L 264 51.277 L 259.01 43.709 L 254.021 36.142 L 251.839 35.821 L 249.657 35.5 L 249.245 34.25 L 248.833 33 L 250.865 33 L 252.896 33 L 251.832 29.949 L 250.769 26.898 L 251.384 26.282 L 252 25.667 L 252.264 26.083 L 252.528 26.5 L 255.342 32.432 L 258.157 38.364 L 259.063 36.932 L 259.969 35.5 L 259.985 33.75 L 260 32 L 261.138 32 L 262.275 32 L 261.632 37.478 L 260.988 42.956 L 263.744 46.94 L 266.5 50.924 L 267.203 50.962 L 267.906 51 L 268.947 47.25 L 269.989 43.5 L 269.972 39.5 L 269.956 35.5 L 268.093 31.398 L 266.23 27.295 L 261.865 23.06 L 257.5 18.824 L 249.772 14.912 L 242.044 11 L 240.891 11 L 239.738 11 L 240.241 21.25 M 540.806 12.399 L 536.112 13.662 L 534.306 15.031 L 532.5 16.4 L 529.658 18.95 L 526.817 21.5 L 524.908 25.21 L 523 28.92 L 523 33.422 L 523 37.923 L 519.25 38.949 L 515.5 39.976 L 512.229 41.986 L 508.959 43.996 L 506.021 48.628 L 503.084 53.26 L 502.423 57.668 L 501.761 62.076 L 502.999 66.496 L 504.236 70.916 L 507.726 74.993 L 511.215 79.069 L 515.357 81.209 L 519.5 83.35 L 525 83.423 L 530.5 83.496 L 534.068 82.671 L 537.635 81.846 L 544.933 96.173 L 552.231 110.5 L 553.081 110.822 L 553.931 111.144 L 558.537 107.974 L 563.144 104.805 L 572.322 100.476 L 581.5 96.147 L 591 93.451 L 600.5 90.755 L 600.883 90.411 L 601.266 90.067 L 598.517 84.284 L 595.768 78.5 L 591.51 68.5 L 587.251 58.5 L 586.623 56.455 L 585.995 54.41 L 590.082 50.455 L 594.169 46.5 L 596.165 42.632 L 598.161 38.765 L 598.133 32.934 L 598.105 27.103 L 596.548 24.093 L 594.991 21.082 L 592.33 18.421 L 589.669 15.759 L 586.366 14.38 L 583.064 13 L 578.992 13 L 574.92 13 L 571.028 14.986 L 567.136 16.971 L 566.524 17.961 L 565.913 18.95 L 561.906 16.047 L 557.899 13.144 L 552.9 12.072 L 547.902 11 L 546.701 11.067 L 545.5 11.135 L 540.806 12.399 M 184.472 15.1 L 179.5 18.233 L 174.292 22.658 L 169.085 27.082 L 165.918 33.514 L 162.752 39.946 L 162.282 48.723 L 161.811 57.5 L 162.724 59.874 L 163.636 62.249 L 168.278 52.874 L 172.92 43.5 L 172.088 39.852 L 171.256 36.203 L 172.074 34.88 L 172.892 33.556 L 173.446 35.278 L 174 37 L 174.517 38.626 L 175.034 40.253 L 178.023 36.126 L 181.013 32 L 182.037 32 L 183.061 32 L 179.361 37.75 L 175.661 43.5 L 174.099 46.185 L 172.538 48.871 L 173.3 49.633 L 174.062 50.395 L 176.962 48.682 L 179.862 46.968 L 180.471 47.953 L 181.08 48.938 L 175.406 52.14 L 169.733 55.342 L 167.463 60.421 L 165.193 65.5 L 164.461 67.964 L 163.729 70.429 L 168.982 65.706 L 174.235 60.983 L 179.088 58.255 L 183.941 55.527 L 187.018 49.465 L 190.095 43.402 L 191.037 36.951 L 191.979 30.5 L 191.346 23 L 190.713 15.5 L 190.078 13.733 L 189.444 11.967 L 184.472 15.1 M 539.355 15.447 L 536.211 16.815 L 532.164 20.471 L 528.117 24.127 L 526.426 28.555 L 524.734 32.984 L 525.282 37.069 L 525.831 41.155 L 527.592 43.101 L 529.353 45.047 L 528.22 46.18 L 527.087 47.313 L 525.293 44.163 L 523.5 41.013 L 521.71 41.006 L 519.92 41 L 516.21 42.903 L 512.5 44.805 L 510.298 47.166 L 508.095 49.527 L 506.548 53.232 L 505 56.936 L 505.022 60.718 L 505.044 64.5 L 506.908 68.605 L 508.772 72.71 L 511.136 74.942 L 513.5 77.174 L 517.21 79.087 L 520.92 81 L 526.71 80.994 L 532.5 80.988 L 535.131 79.615 L 537.762 78.242 L 542.294 85.871 L 546.826 93.5 L 548.074 96.25 L 549.321 99 L 550.323 99 L 551.325 99 L 555.944 96.036 L 560.564 93.071 L 568.17 89.557 L 575.776 86.043 L 584.426 83.136 L 593.077 80.229 L 593.179 79.557 L 593.281 78.886 L 587.968 65.829 L 582.656 52.772 L 584.275 51.866 L 585.894 50.96 L 588.869 48.457 L 591.844 45.953 L 594.041 41.416 L 596.238 36.878 L 595.792 31.511 L 595.347 26.144 L 592.532 22.453 L 589.717 18.762 L 585.219 16.773 L 580.722 14.783 L 577.32 15.335 L 573.918 15.888 L 570.465 18.021 L 567.013 20.155 L 568.099 22.185 L 569.185 24.215 L 568.255 25.145 L 567.324 26.076 L 564.574 22.106 L 561.823 18.137 L 557.422 16.069 L 553.022 14 L 547.761 14.039 L 542.5 14.078 L 539.355 15.447 M 273.125 23.281 L 270.011 28.724 L 272.003 36.512 L 273.995 44.301 L 273.128 45.4 L 272.261 46.5 L 271.028 50.326 L 269.795 54.152 L 272.072 56.576 L 274.349 59 L 275.086 59 L 275.824 59 L 276.506 54.967 L 277.187 50.934 L 275.593 48.502 L 274 46.07 L 274 45.535 L 274 45 L 275.5 45 L 277 45 L 277 40.059 L 277 35.118 L 278.15 34.407 L 279.3 33.697 L 278.767 46.821 L 278.235 59.945 L 280.01 58.995 L 281.784 58.045 L 284.306 55.048 L 286.828 52.051 L 288.03 48.409 L 289.232 44.767 L 288.716 40.92 L 288.2 37.074 L 282.909 28.287 L 277.618 19.5 L 276.928 18.669 L 276.239 17.839 L 273.125 23.281 M 379.167 37.941 L 376 41.883 L 376 43.907 L 376 45.93 L 379.006 49.354 L 382.012 52.778 L 385.468 54.418 L 388.923 56.057 L 391.712 55.376 L 394.5 54.695 L 396.978 52.774 L 399.456 50.853 L 401.222 48.177 L 402.987 45.5 L 402.993 44.469 L 403 43.438 L 400 42.306 L 397 41.174 L 397 39.055 L 397 36.937 L 395.436 36.337 L 393.872 35.737 L 391.455 36.838 L 389.038 37.94 L 387.984 35.97 L 386.93 34 L 384.632 34 L 382.335 34 L 379.167 37.941 M 145.288 50.566 L 141.5 58.5 L 141.536 67 L 141.572 75.5 L 142.913 78 L 144.255 80.5 L 148.842 87.813 L 153.429 95.127 L 154.1 93.313 L 154.77 91.5 L 154.338 87 L 153.906 82.5 L 153.383 80.045 L 152.859 77.59 L 149.18 74.395 L 145.5 71.2 L 146.244 70.439 L 146.988 69.679 L 149 71.5 L 151.012 73.321 L 151.359 72.911 L 151.705 72.5 L 149.955 65.5 L 148.204 58.5 L 148.536 58.15 L 148.867 57.8 L 149.933 58.459 L 151 59.118 L 151 61.126 L 151 63.135 L 153 62.5 L 155 61.865 L 155 62.498 L 155 63.131 L 153.932 65.127 L 152.864 67.123 L 154.432 73.375 L 156 79.628 L 156 82.873 L 156 86.118 L 157.001 85.5 L 158.001 84.881 L 159.124 80.424 L 160.246 75.966 L 161.19 75.383 L 162.133 74.8 L 162.679 75.346 L 163.225 75.892 L 161.612 80.624 L 160 85.356 L 160 86.172 L 160 86.987 L 164.329 83.743 L 168.659 80.5 L 173.329 77.271 L 178 74.041 L 178 70.521 L 178 67 L 179.5 67 L 181 67 L 181 69.551 L 181 72.102 L 184.41 69.501 L 187.82 66.9 L 188.386 67.816 L 188.953 68.733 L 187.226 70.224 L 185.5 71.715 L 177.819 76.842 L 170.138 81.968 L 169.51 82.984 L 168.882 84 L 172.382 84 L 175.882 84 L 176.541 85.067 L 177.2 86.133 L 176.796 86.537 L 176.392 86.941 L 170.946 86.027 L 165.5 85.112 L 160.632 90.105 L 155.765 95.098 L 156.269 95.603 L 156.774 96.107 L 165.506 94.583 L 174.238 93.059 L 179.318 90.189 L 184.398 87.319 L 188.209 81.909 L 192.021 76.5 L 195.508 66.717 L 198.994 56.935 L 197.485 56.356 L 195.975 55.777 L 191.238 56.446 L 186.5 57.115 L 181.026 59.808 L 175.551 62.5 L 169.376 68.533 L 163.2 74.567 L 162.206 74.235 L 161.212 73.904 L 161.734 71.91 L 162.255 69.916 L 160.979 63.903 L 159.703 57.89 L 156.294 52.195 L 152.885 46.5 L 150.981 44.566 L 149.076 42.632 L 145.288 50.566 M 235 45.36 L 235 46.721 L 237.597 50.61 L 240.195 54.5 L 243.847 58.335 L 247.5 62.169 L 251.488 64.226 L 255.476 66.283 L 260.488 66.33 L 265.5 66.377 L 269.25 65.111 L 273 63.845 L 273 63.052 L 273 62.258 L 267.022 61.582 L 261.045 60.906 L 259.088 61.953 L 257.131 63 L 256.159 63 L 255.187 63 L 255.684 61.099 L 256.181 59.199 L 253.038 58.508 L 249.894 57.818 L 250.264 56.709 L 250.633 55.6 L 253.223 55.6 L 255.813 55.6 L 257.157 56.708 L 258.5 57.815 L 264.434 58.908 L 270.367 60 L 271.358 60 L 272.349 60 L 270 57.5 L 267.651 55 L 263.576 54.978 L 259.5 54.956 L 255.5 53.1 L 251.5 51.244 L 248.054 47.622 L 244.608 44 L 239.804 44 L 235 44 L 235 45.36 M 0 55 L 0 56 L 41.542 56 L 83.083 56 L 82.408 63.75 L 81.733 71.5 L 79.891 78.814 L 78.049 86.128 L 74.863 92.106 L 71.677 98.084 L 65.958 103.378 L 60.24 108.672 L 53.104 110.966 L 45.968 113.261 L 38.623 112.79 L 31.277 112.318 L 24.889 109.301 L 18.5 106.283 L 14.161 101.892 L 9.823 97.5 L 6.844 91.646 L 3.866 85.792 L 1.939 78.646 L 0.011 71.5 L 0.377 78.089 L 0.744 84.677 L 4.034 91.589 L 7.325 98.5 L 13.188 104.25 L 19.051 110 L 17.526 112.95 L 16 115.901 L 16 117.879 L 16 119.858 L 21.75 121.179 L 27.5 122.5 L 42 122.451 L 56.5 122.403 L 60.801 121.149 L 65.103 119.895 L 65.659 118.446 L 66.216 116.996 L 64.63 113.032 L 63.044 109.069 L 66.408 106.503 L 69.772 103.937 L 72.424 100.109 L 75.077 96.282 L 81.497 95.683 L 87.917 95.083 L 91.901 93.051 L 95.884 91.018 L 98.566 87.503 L 101.247 83.987 L 101.735 79.659 L 102.223 75.331 L 100.601 72.195 L 98.979 69.059 L 96.747 67.865 L 94.515 66.67 L 89.757 66.778 L 85 66.887 L 85 60.443 L 85 54 L 42.5 54 L 0 54 L 0 55 M 85.222 70.25 L 84.2 71.5 L 82.468 78.444 L 80.736 85.388 L 79.368 88.662 L 78 91.936 L 78 92.468 L 78 93 L 82.75 92.984 L 87.5 92.967 L 91.5 90.734 L 95.5 88.5 L 97.888 83.683 L 100.277 78.866 L 99.103 74.95 L 97.929 71.033 L 96.03 70.016 L 94.131 69 L 90.188 69 L 86.245 69 L 85.222 70.25 M 464 73.592 L 460.5 75.106 L 457.309 78.192 L 454.118 81.277 L 451.03 78.679 L 447.941 76.08 L 444.374 75.41 L 440.807 74.741 L 436.996 75.883 L 433.185 77.025 L 430.093 80.547 L 427 84.07 L 427 88.342 L 427 92.615 L 422.966 94.395 L 418.931 96.175 L 417.499 98.361 L 416.066 100.548 L 415.894 103.524 L 415.721 106.5 L 416.469 109.25 L 417.217 112 L 415.795 112 L 414.374 112 L 411.607 114.888 L 408.84 117.777 L 408.367 121.638 L 407.895 125.5 L 409.969 128.81 L 412.044 132.12 L 415.625 133.617 L 419.207 135.113 L 422.057 134.488 L 424.906 133.862 L 427.459 131.853 L 430.013 129.845 L 433.573 132.045 L 437.133 134.245 L 441.642 133.737 L 446.152 133.229 L 449.076 130.427 L 452 127.626 L 452 126.313 L 452 125 L 452.789 125 L 453.577 125 L 457.5 127 L 461.423 129 L 464.562 129 L 467.702 129 L 471.101 127.864 L 474.5 126.728 L 477.254 124.173 L 480.009 121.617 L 481.205 118.309 L 482.402 115 L 488.233 115 L 494.064 115 L 497.282 113.655 L 500.5 112.31 L 501.798 110.744 L 503.097 109.178 L 503.658 105.721 L 504.219 102.264 L 502.467 98.571 L 500.714 94.878 L 497.125 92.439 L 493.536 90 L 490.268 90 L 487 90 L 486.996 86.25 L 486.993 82.5 L 484.976 79.192 L 482.959 75.884 L 478.729 73.964 L 474.5 72.044 L 471 72.061 L 467.5 72.078 L 464 73.592 M 463.376 76.531 L 460.252 78.128 L 457.706 80.814 L 455.16 83.5 L 454.868 87.741 L 454.577 91.982 L 458.491 95.991 L 462.406 100 L 467.953 99.984 L 473.5 99.967 L 477.5 97.725 L 481.5 95.482 L 483.353 91.698 L 485.206 87.913 L 484.591 84.632 L 483.975 81.35 L 480.989 78.489 L 478.002 75.628 L 472.251 75.28 L 466.5 74.933 L 463.376 76.531 M 435.984 78.843 L 432.5 80.686 L 430.594 84.153 L 428.688 87.62 L 429.337 90.207 L 429.987 92.794 L 433.721 94.998 L 437.456 97.202 L 438.978 96.114 L 440.5 95.025 L 443.328 93.447 L 446.156 91.868 L 448.828 91.668 L 451.5 91.468 L 451.826 88.061 L 452.153 84.654 L 450.932 82.372 L 449.71 80.09 L 446.454 78.545 L 443.198 77 L 441.333 77 L 439.469 77 L 435.984 78.843 M 583.326 85.981 L 575.152 88.811 L 566.164 93.311 L 557.176 97.81 L 554.168 100.034 L 551.16 102.258 L 552.241 104.629 L 553.321 107 L 553.99 107 L 554.659 107 L 562.416 102.579 L 570.174 98.158 L 579.837 94.648 L 589.5 91.138 L 593.708 90.042 L 597.916 88.945 L 597.303 87.223 L 596.69 85.5 L 595.722 84.25 L 594.755 83 L 593.128 83.075 L 591.5 83.151 L 583.326 85.981 M 484.554 94.914 L 482.173 98.686 L 479.087 99.964 L 476 101.243 L 476 101.727 L 476 102.211 L 478.5 105.182 L 481 108.153 L 481 109.542 L 481 110.93 L 482.934 111.965 L 484.869 113 L 489.53 113 L 494.191 113 L 497.088 111.289 L 499.984 109.578 L 501.049 106.35 L 502.115 103.122 L 500.652 100.311 L 499.19 97.5 L 496.845 95.346 L 494.5 93.192 L 490.717 92.167 L 486.935 91.143 L 484.554 94.914 M 442.4 97.4 L 439 100.8 L 439 104.713 L 439 108.626 L 441.75 111.242 L 444.5 113.857 L 447.197 114.524 L 449.894 115.19 L 453.444 114.019 L 456.994 112.847 L 458.497 110.701 L 460 108.555 L 460 104.677 L 460 100.8 L 456.6 97.4 L 453.2 94 L 449.5 94 L 445.8 94 L 442.4 97.4 M 424.388 95.98 L 422.276 96.833 L 420.138 99.552 L 418 102.27 L 418 105.448 L 418 108.626 L 420.905 111.409 L 423.81 114.193 L 427.434 114.295 L 431.057 114.398 L 433.635 111.82 L 436.213 109.242 L 436.389 104.805 L 436.566 100.369 L 433.122 97.684 L 429.678 95 L 428.089 95.063 L 426.5 95.127 L 424.388 95.98 M 344.5 102.662 L 340.5 104.236 L 333 104.934 L 325.5 105.631 L 323.414 106.763 L 321.328 107.895 L 317.785 111.817 L 314.242 115.738 L 312.121 121.407 L 310 127.075 L 310 128.053 L 310 129.031 L 306.308 134.591 L 302.617 140.151 L 302.253 145.825 L 301.89 151.5 L 303.967 154.81 L 306.044 158.12 L 309.46 159.548 L 312.876 160.975 L 316.188 160.319 L 319.5 159.662 L 324.5 157.341 L 329.5 155.02 L 336.216 155.01 L 342.932 155 L 346.431 153.331 L 349.931 151.663 L 354.215 152.918 L 358.5 154.173 L 362.912 156.724 L 367.325 159.275 L 373.754 165.641 L 380.184 172.008 L 382.611 172.617 L 385.039 173.227 L 387.949 172.021 L 390.86 170.815 L 392.43 167.507 L 394 164.198 L 393.994 158.349 L 393.989 152.5 L 392.911 148.5 L 391.833 144.5 L 388.917 140.809 L 386 137.117 L 385.956 132.809 L 385.912 128.5 L 384.551 124.684 L 383.19 120.868 L 381.345 118.804 L 379.5 116.741 L 375.25 114.906 L 371 113.071 L 371 112.112 L 371 111.153 L 368.291 107.934 L 365.583 104.715 L 361.541 102.88 L 357.5 101.044 L 353 101.066 L 348.5 101.088 L 344.5 102.662 M 463.65 102.758 L 463.182 103.515 L 462.485 107.227 L 461.789 110.938 L 459.238 113.489 L 456.687 116.041 L 454.343 116.629 L 452 117.217 L 452 118.093 L 452 118.968 L 454.75 122.037 L 457.5 125.106 L 461.5 126.014 L 465.5 126.922 L 469.119 125.958 L 472.739 124.993 L 475.345 122.943 L 477.952 120.893 L 479.091 117.09 L 480.23 113.288 L 478.509 109.66 L 476.787 106.032 L 473.526 104.016 L 470.264 102 L 467.191 102 L 464.118 102 L 463.65 102.758 M 345.238 104.067 L 341.976 105.064 L 347.655 110.608 L 353.334 116.153 L 357.61 115.077 L 361.886 114 L 364.884 114 L 367.882 114 L 368.546 112.926 L 369.21 111.852 L 366.855 109.331 L 364.5 106.81 L 361.836 105.424 L 359.172 104.038 L 353.836 103.554 L 348.5 103.071 L 345.238 104.067 M 325.239 108.597 L 321.979 110.26 L 319.102 113.537 L 316.225 116.813 L 313.997 123.657 L 311.769 130.5 L 308.441 135.5 L 305.113 140.5 L 304.458 144.185 L 303.802 147.87 L 304.939 151.314 L 306.075 154.758 L 308.017 156.515 L 309.959 158.273 L 313.842 158.273 L 317.725 158.273 L 323.483 155.636 L 329.242 153 L 335.898 153 L 342.555 153 L 345.027 151.332 L 347.5 149.664 L 353.054 144.448 L 358.608 139.232 L 364.005 136.498 L 369.402 133.763 L 376.817 134.239 L 384.233 134.715 L 383.618 130.227 L 383.003 125.74 L 380.986 122.477 L 378.968 119.213 L 375.327 117.485 L 371.686 115.757 L 364.593 116.221 L 357.5 116.684 L 352 119.298 L 346.5 121.911 L 342.069 126.427 L 337.639 130.944 L 339.281 132.758 L 340.924 134.573 L 342.453 138.233 L 343.982 141.893 L 343.021 142.487 L 342.061 143.081 L 340.651 139.708 L 339.242 136.336 L 336.486 134.168 L 333.73 132 L 331.43 132 L 329.13 132 L 326.315 133.061 L 323.5 134.123 L 320.132 137.311 L 316.764 140.5 L 313.924 146.75 L 311.084 153 L 310.042 153 L 309 153 L 309 152.624 L 309 152.249 L 311.54 146.505 L 314.08 140.761 L 316.777 137.226 L 319.474 133.69 L 323.487 131.867 L 327.5 130.044 L 331.598 130.022 L 335.696 130 L 341.098 124.75 L 346.5 119.5 L 348.5 118.353 L 350.5 117.206 L 349.419 115.398 L 348.339 113.59 L 344.632 110.59 L 340.926 107.59 L 334.713 107.262 L 328.5 106.935 L 325.239 108.597 M 148.771 111.108 L 146.224 114.5 L 143.48 119.978 L 140.736 125.455 L 138.915 130.746 L 137.095 136.036 L 136.432 141.902 L 135.768 147.767 L 136.962 151.384 L 138.155 155 L 139.381 155 L 140.608 155 L 143.753 151.75 L 146.899 148.5 L 148.583 144.5 L 150.268 140.5 L 151.62 135 L 152.973 129.5 L 153.585 120.5 L 154.197 111.5 L 152.758 109.608 L 151.319 107.715 L 148.771 111.108 M 212.994 108.879 L 210.487 109.697 L 207.363 111.312 L 204.238 112.928 L 201.717 115.925 L 199.196 118.921 L 197.475 123.426 L 195.755 127.931 L 196.177 133.716 L 196.6 139.5 L 198.956 144.207 L 201.311 148.914 L 197.406 153.68 L 193.5 158.447 L 184.608 167.748 L 175.716 177.05 L 176.108 177.351 L 176.5 177.653 L 184.06 183.272 L 191.619 188.891 L 199.584 197.195 L 207.548 205.5 L 213.936 213.75 L 220.324 222 L 221.427 222 L 222.53 222 L 235.015 209.431 L 247.5 196.862 L 250.1 194.97 L 252.699 193.078 L 257.86 195.039 L 263.021 197 L 266.645 197 L 270.268 197 L 274.384 195.77 L 278.5 194.54 L 282.675 190.371 L 286.85 186.203 L 287.919 182.351 L 288.989 178.5 L 288.972 175 L 288.956 171.5 L 287.044 167.287 L 285.131 163.074 L 281.072 160.287 L 277.012 157.5 L 277.647 155 L 278.282 152.5 L 278.924 149 L 279.566 145.5 L 278.85 140.105 L 278.133 134.711 L 274.477 129.402 L 270.821 124.094 L 265.891 120.93 L 260.961 117.767 L 254.483 117.247 L 248.005 116.727 L 243.332 118.511 L 238.659 120.296 L 235.693 116.598 L 232.727 112.901 L 228.795 110.895 L 224.863 108.89 L 220.182 108.475 L 215.5 108.06 L 212.994 108.879 M 19.559 114.182 L 17.972 117.364 L 19.227 118.14 L 20.483 118.916 L 25.991 119.708 L 31.5 120.5 L 43 120.385 L 54.5 120.27 L 58.861 119.066 L 63.223 117.863 L 62.601 114.754 L 61.979 111.646 L 61.606 111.273 L 61.233 110.9 L 55.148 112.95 L 49.063 115 L 41.621 115 L 34.178 115 L 27.839 113.013 L 21.5 111.026 L 21.323 111.013 L 21.146 111 L 19.559 114.182 M 210.5 112.662 L 207.5 114.243 L 205.153 116.372 L 202.805 118.5 L 200.733 122.5 L 198.66 126.5 L 198.643 132.689 L 198.625 138.878 L 201.703 143.83 L 204.782 148.782 L 196.391 158.48 L 188 168.179 L 188 168.92 L 188 169.661 L 192.75 173.016 L 197.5 176.371 L 206.858 185.436 L 216.217 194.5 L 222.754 202.83 L 229.291 211.161 L 236.396 204.317 L 243.5 197.474 L 247.728 193.556 L 251.956 189.637 L 256.895 191.951 L 261.835 194.265 L 267.306 194.215 L 272.778 194.166 L 275.639 192.672 L 278.5 191.179 L 281.128 188.339 L 283.756 185.5 L 284.935 183.208 L 286.115 180.916 L 286.153 176.092 L 286.19 171.268 L 284.631 168.253 L 283.072 165.238 L 279.959 162.619 L 276.847 160 L 275.623 160 L 274.4 160 L 273.217 161.183 L 272.033 162.367 L 271.491 161.825 L 270.949 161.283 L 273.725 155.927 L 276.5 150.572 L 276.496 144.036 L 276.491 137.5 L 273.746 132.824 L 271.002 128.147 L 267.251 125.039 L 263.5 121.931 L 258.166 120.37 L 252.831 118.809 L 249.2 119.49 L 245.569 120.171 L 242.535 121.698 L 239.5 123.224 L 236.265 126.294 L 233.03 129.363 L 232.336 128.669 L 231.642 127.975 L 233.821 125.028 L 236 122.081 L 236 121.157 L 236 120.233 L 231.948 116.572 L 227.895 112.911 L 225.383 111.955 L 222.87 111 L 218.185 111.04 L 213.5 111.08 L 210.5 112.662 M 434.124 114.969 L 430.747 117.857 L 430.638 122.023 L 430.529 126.19 L 433.78 129.095 L 437.032 132 L 439.565 132 L 442.099 132 L 445.033 130.483 L 447.966 128.966 L 449.435 126.126 L 450.904 123.286 L 450.169 120.539 L 449.434 117.791 L 445.651 116.491 L 441.868 115.19 L 440.105 113.595 L 438.343 112 L 437.921 112.041 L 437.5 112.081 L 434.124 114.969 M 415.217 114.561 L 412.989 116.121 L 411.437 119.122 L 409.885 122.122 L 411.026 125.579 L 412.167 129.035 L 415.034 130.517 L 417.901 132 L 420.728 132 L 423.555 132 L 425.777 130.443 L 428 128.887 L 428 122.943 L 428 117 L 426.25 116.996 L 424.5 116.993 L 421.226 114.996 L 417.952 113 L 417.698 113 L 417.445 113 L 415.217 114.561 M 522.637 122.42 L 518.775 123.842 L 515.91 126.586 L 513.046 129.33 L 511.907 132.782 L 510.768 136.233 L 511.309 140.27 L 511.851 144.307 L 513.967 147.169 L 516.083 150.031 L 510.892 153.266 L 505.701 156.5 L 488.114 167.003 L 470.526 177.505 L 470.191 179.245 L 469.856 180.984 L 475.04 189.567 L 480.225 198.15 L 482.457 200.745 L 484.69 203.341 L 492.595 199.034 L 500.5 194.728 L 513 188.004 L 525.5 181.281 L 530.797 178.39 L 536.095 175.5 L 538.297 178.131 L 540.5 180.761 L 543.7 182.381 L 546.901 184 L 550.802 184 L 554.704 184 L 558.033 181.75 L 561.361 179.5 L 562.683 176.25 L 564.006 173 L 563.003 173 L 562 173 L 561.967 174.25 L 561.933 175.5 L 560.157 177.626 L 558.38 179.752 L 555.44 181.238 L 552.5 182.724 L 549.594 182.307 L 546.687 181.89 L 543.861 180.428 L 541.034 178.966 L 539.517 176.033 L 538 173.099 L 538 169.531 L 538 165.962 L 535.75 166.503 L 533.5 167.044 L 530.241 165.031 L 526.982 163.018 L 524.995 159.759 L 523.007 156.5 L 523.004 152.75 L 523 149 L 520.573 149 L 518.145 149 L 516.142 146.453 L 514.138 143.906 L 513.49 140.953 L 512.841 138 L 513.504 134.983 L 514.166 131.966 L 517.345 128.596 L 520.523 125.226 L 524.262 124.193 L 528 123.161 L 531.623 124.161 L 535.245 125.162 L 537.623 127.727 L 540 130.292 L 540 133.146 L 540 136 L 541 136 L 542 136 L 542 133 L 542 130 L 545.25 130.004 L 548.5 130.007 L 551.701 131.96 L 554.903 133.912 L 556.473 136.947 L 558.042 139.983 L 557.45 142.343 L 556.858 144.704 L 560.046 147.892 L 563.234 151.08 L 562.624 154.29 L 562.014 157.5 L 559.007 160.073 L 556 162.646 L 556 163.431 L 556 164.217 L 558.432 163.606 L 560.864 162.996 L 561.504 165.013 L 562.144 167.029 L 563.034 166.479 L 563.925 165.929 L 562.815 163.494 L 561.706 161.059 L 563.008 159.49 L 564.31 157.921 L 564.405 153.542 L 564.5 149.162 L 562.119 146.628 L 559.739 144.093 L 559.52 140.486 L 559.301 136.88 L 557.329 134.19 L 555.358 131.5 L 551.929 129.752 L 548.5 128.003 L 545.191 128.002 L 541.883 128 L 538.191 125.045 L 534.5 122.09 L 530.5 121.543 L 526.5 120.997 L 522.637 122.42 M 365.5 138.39 L 360.5 140.76 L 356.25 144.458 L 352 148.156 L 352 149.059 L 352 149.962 L 354.75 150.624 L 357.5 151.286 L 362 153.536 L 366.5 155.785 L 374.757 163.393 L 383.015 171 L 384.451 171 L 385.888 171 L 388.638 168.635 L 391.388 166.269 L 391.804 159.734 L 392.22 153.198 L 390.986 149.349 L 389.752 145.5 L 387.244 142.144 L 384.736 138.788 L 381.4 137.394 L 378.064 136 L 374.282 136.01 L 370.5 136.02 L 365.5 138.39 M 87.925 147.25 L 86.772 151.5 L 87.371 161 L 87.969 170.5 L 88.57 173.555 L 89.17 176.609 L 83.671 176.555 L 78.173 176.5 L 75.06 178.799 L 71.947 181.099 L 69.163 179.116 L 66.378 177.133 L 63.682 176.456 L 60.987 175.78 L 57.523 176.43 L 54.059 177.08 L 51.048 179.613 L 48.038 182.146 L 47.039 185.855 L 46.041 189.563 L 47.054 193.232 L 48.067 196.901 L 52.048 200.309 L 56.029 203.716 L 54.52 206.608 L 53.012 209.5 L 53.006 212.185 L 53 214.87 L 54.067 217.685 L 55.133 220.5 L 57.277 222.789 L 59.421 225.077 L 63.558 226.119 L 67.694 227.16 L 66.191 231.341 L 64.688 235.522 L 65.376 239.189 L 66.064 242.857 L 68.88 245.871 L 71.695 248.885 L 74.598 249.526 L 77.5 250.167 L 78.812 250.576 L 80.124 250.985 L 78.562 253.215 L 77 255.445 L 77 259.488 L 77 263.531 L 78.827 266.938 L 80.655 270.345 L 84.062 272.173 L 87.469 274 L 90.784 274 L 94.099 274 L 96.8 272.595 L 99.5 271.19 L 102 268.515 L 104.5 265.84 L 104.5 260.67 L 104.5 255.5 L 103.683 253.25 L 102.865 251 L 107.05 251 L 111.235 251 L 115.251 246.984 L 119.267 242.969 L 118.767 235.984 L 118.267 229 L 121.384 228.996 L 124.5 228.993 L 127.701 227.04 L 130.903 225.088 L 132.572 221.86 L 134.242 218.632 L 133.702 213.404 L 133.163 208.175 L 135.983 207.007 L 138.802 205.839 L 141.068 203.427 L 143.334 201.015 L 143.778 195.668 L 144.221 190.321 L 141.028 186.685 L 137.835 183.049 L 134.229 182.053 L 130.622 181.057 L 128.061 181.666 L 125.5 182.276 L 124.214 183.29 L 122.928 184.305 L 120.214 181.775 L 117.5 179.244 L 115.316 178.122 L 113.131 177 L 109.316 177.007 L 105.5 177.013 L 102.861 178.757 L 100.221 180.5 L 98.328 182.841 L 96.435 185.181 L 95.048 182.591 L 93.662 180 L 92.831 180 L 92 180 L 92 179.035 L 92 178.07 L 95.241 174.378 L 98.483 170.686 L 102.491 168.865 L 106.5 167.044 L 110.191 167.022 L 113.882 167 L 114.504 165.993 L 115.127 164.986 L 113.604 164.401 L 112.081 163.817 L 106.838 164.941 L 101.595 166.066 L 96.342 170.031 L 91.09 173.997 L 90.309 170.248 L 89.528 166.5 L 89.514 159.5 L 89.5 152.5 L 90.311 147.75 L 91.123 143 L 90.1 143 L 89.077 143 L 87.925 147.25 M 0 148.87 L 0 149.74 L 4.595 151.027 L 9.189 152.313 L 12.595 155.525 L 16 158.736 L 15.968 162.618 L 15.936 166.5 L 14.643 168.202 L 13.349 169.905 L 8.505 167.452 L 3.661 165 L 1.831 165 L 0 165 L 0.011 165.75 L 0.022 166.5 L 5.177 168.5 L 10.332 170.5 L 12.308 173.179 L 14.285 175.859 L 14.202 181.733 L 14.119 187.608 L 11.982 193.32 L 9.845 199.031 L 7.274 202.087 L 4.703 205.142 L 2.351 204.552 L 0 203.962 L 0 205.481 L 0 207 L 1.514 207 L 3.028 207 L 6.269 209.124 L 9.509 211.249 L 11.322 213.652 L 13.135 216.055 L 13.689 219.472 L 14.244 222.889 L 13.585 227.195 L 12.926 231.5 L 11.173 233.797 L 9.42 236.094 L 4.71 233.462 L 0 230.829 L 0.021 232.165 L 0.043 233.5 L 4.171 236.422 L 8.298 239.344 L 5.273 242.048 L 2.247 244.751 L 0.874 245.239 L -0.5 245.726 L 0.263 246.542 L 1.025 247.358 L 4.48 245.711 L 7.935 244.063 L 10.594 239.851 L 13.253 235.639 L 14.684 232.213 L 16.116 228.786 L 16.197 223.087 L 16.278 217.387 L 15.054 214.944 L 13.83 212.5 L 10.24 209.353 L 6.649 206.206 L 9.247 203.118 L 11.845 200.031 L 13.829 194.726 L 15.814 189.421 L 16.494 184.89 L 17.173 180.358 L 16.028 176.103 L 14.882 171.847 L 15.983 170.521 L 17.084 169.194 L 17.967 166.116 L 18.849 163.038 L 17.9 159.601 L 16.951 156.165 L 13.503 153.137 L 10.055 150.109 L 6.277 149.06 L 2.5 148.011 L 1.25 148.006 L 0 148 L 0 148.87 M 504.5 159.568 L 490.5 167.929 L 481.25 173.614 L 472 179.299 L 472 180.039 L 472 180.778 L 473.75 182.835 L 475.5 184.891 L 484.889 179.409 L 494.279 173.926 L 495.193 174.231 L 496.107 174.536 L 486.803 180.448 L 477.5 186.361 L 477.088 186.676 L 476.675 186.992 L 477.816 189.496 L 478.957 192 L 480.155 192 L 481.353 192 L 489.691 187 L 498.028 182 L 498.514 182 L 499 182 L 499 183.35 L 499 184.7 L 490.476 189.485 L 481.952 194.269 L 481.481 195.03 L 481.011 195.792 L 482.921 198.146 L 484.831 200.5 L 491.166 197.261 L 497.5 194.022 L 516.5 183.62 L 535.5 173.218 L 535.802 171.245 L 536.104 169.271 L 533.068 168.664 L 530.032 168.056 L 526.416 164.742 L 522.8 161.428 L 521.552 156.515 L 520.304 151.601 L 519.402 151.404 L 518.5 151.206 L 504.5 159.568 M 182.65 173.624 L 179.82 176.248 L 181.16 177.435 L 182.5 178.621 L 189.9 184.546 L 197.299 190.472 L 204.905 198.986 L 212.511 207.5 L 216.443 213 L 220.376 218.5 L 220.72 218.949 L 221.064 219.397 L 224.193 216.269 L 227.322 213.14 L 225.657 210.6 L 223.993 208.059 L 216.589 199.236 L 209.186 190.412 L 201.843 183.918 L 194.5 177.423 L 190.356 174.212 L 186.212 171 L 185.846 171 L 185.48 171 L 182.65 173.624 M 52.954 181.75 L 49.877 184.5 L 49.399 188.5 L 48.922 192.5 L 50.213 194.945 L 51.504 197.391 L 54.701 199.258 L 57.898 201.125 L 59.995 200.003 L 62.092 198.881 L 65.729 198.648 L 69.366 198.415 L 69.433 190.583 L 69.5 182.752 L 67.115 180.876 L 64.73 179 L 60.381 179 L 56.032 179 L 52.954 181.75 M 76.143 181.533 L 73.134 184.065 L 71.97 187.592 L 70.806 191.118 L 71.983 193.96 L 73.161 196.802 L 75.437 198.941 L 77.713 201.079 L 81.225 201.649 L 84.736 202.219 L 88.162 200.593 L 91.588 198.968 L 93.294 196.08 L 95 193.191 L 95 190.546 L 95 187.901 L 93.483 184.967 L 91.966 182.034 L 89.033 180.517 L 86.099 179 L 82.626 179 L 79.153 179 L 76.143 181.533 M 106.643 180.102 L 103.785 180.885 L 101.884 182.605 L 99.983 184.326 L 98.894 187.961 L 97.804 191.596 L 99.323 195.232 L 100.842 198.867 L 104.071 200.537 L 107.3 202.206 L 110.528 202.298 L 113.757 202.389 L 116.418 200.646 L 119.079 198.902 L 120.708 195.486 L 122.337 192.069 L 121.127 188.031 L 119.917 183.992 L 117.581 182.461 L 115.245 180.931 L 112.373 180.125 L 109.5 179.32 L 106.643 180.102 M 125.75 185.08 L 124 186.099 L 124 190.599 L 124 195.099 L 122.486 198.027 L 120.972 200.955 L 123.736 201.63 L 126.5 202.305 L 128.907 204.17 L 131.314 206.035 L 133.407 205.405 L 135.5 204.775 L 138.201 202.247 L 140.903 199.719 L 141.508 196.963 L 142.113 194.207 L 140.635 190.67 L 139.158 187.133 L 136.128 185.566 L 133.099 184 L 130.3 184.03 L 127.5 184.061 L 125.75 185.08 M 407.472 189.835 L 402.444 191.695 L 398.472 194.218 L 394.5 196.741 L 392.655 198.804 L 390.81 200.868 L 389.449 204.684 L 388.088 208.5 L 388.044 214.119 L 388 219.738 L 389.491 228.29 L 390.983 236.842 L 393.463 244.671 L 395.943 252.5 L 398.93 256.112 L 401.917 259.723 L 405.01 261.004 L 408.104 262.286 L 412.275 261.036 L 416.447 259.786 L 422.505 253.607 L 428.564 247.428 L 432.723 240.964 L 436.881 234.5 L 437.691 233.684 L 438.5 232.868 L 441.77 230.936 L 445.041 229.005 L 446.08 226.724 L 447.119 224.443 L 445.92 221.472 L 444.721 218.5 L 444.61 211.423 L 444.5 204.346 L 441.474 199.449 L 438.447 194.553 L 433.554 191.526 L 428.66 188.5 L 420.58 188.237 L 412.5 187.975 L 407.472 189.835 M 408.329 191.934 L 403.158 193.795 L 398.58 196.945 L 394.003 200.094 L 392.429 203.137 L 390.855 206.181 L 391.416 207.641 L 391.976 209.102 L 396.738 211.239 L 401.5 213.375 L 413.5 213.6 L 425.5 213.824 L 429.876 215.412 L 434.251 217 L 438.001 217 L 441.75 217 L 442.293 214.25 L 442.836 211.5 L 442.093 207.5 L 441.35 203.5 L 440.257 201.5 L 439.164 199.5 L 435.832 196.301 L 432.5 193.101 L 428.782 191.551 L 425.064 190 L 419.282 190.036 L 413.5 190.072 L 408.329 191.934 M 320.851 191.25 L 320.701 191.5 L 318.601 227.894 L 316.5 264.288 L 315 265.044 L 313.5 265.799 L 305 268.478 L 296.5 271.156 L 287.5 275.513 L 278.5 279.869 L 270.203 286.474 L 261.905 293.08 L 258.895 297.79 L 255.885 302.5 L 256.437 305.5 L 256.989 308.5 L 260.709 316 L 264.43 323.5 L 271.573 330.721 L 278.716 337.942 L 285.834 341.353 L 292.952 344.765 L 299.392 345.98 L 305.832 347.195 L 306.496 349.842 L 307.161 352.489 L 308.203 353.744 L 309.245 355 L 311.665 355 L 314.084 355 L 321.792 353.42 L 329.5 351.84 L 336.393 348.957 L 343.285 346.074 L 347.143 343.401 L 351 340.728 L 350.985 338.614 L 350.969 336.5 L 350.084 335.102 L 349.199 333.705 L 354.581 327.361 L 359.962 321.017 L 363.098 314.807 L 366.233 308.596 L 367.65 300.548 L 369.067 292.5 L 368.062 284.5 L 367.058 276.5 L 365.947 272.622 L 364.835 268.745 L 362.581 266.49 L 360.327 264.236 L 355.114 263.118 L 349.902 262 L 339.951 262 L 330 262 L 330 261.327 L 330 260.653 L 340.556 228.737 L 351.112 196.821 L 350.796 195.181 L 350.481 193.541 L 347.857 192.619 L 345.234 191.696 L 343.867 192.23 L 342.5 192.764 L 333.054 228.382 L 323.609 264 L 322.804 264 L 322 264 L 322 262.096 L 322 260.193 L 324.432 237.846 L 326.865 215.5 L 328.028 204.118 L 329.19 192.736 L 327.845 191.883 L 326.5 191.031 L 323.75 191.015 L 321 191 L 320.851 191.25 M 321.128 218.75 L 319.919 243.5 L 319.408 249 L 318.896 254.5 L 319.82 253 L 320.745 251.5 L 322.362 238 L 323.98 224.5 L 324.982 213.5 L 325.984 202.5 L 326.553 198.25 L 327.123 194 L 324.73 194 L 322.337 194 L 321.128 218.75 M 344.545 195.25 L 344.152 196.5 L 343.094 200 L 342.036 203.5 L 334.547 231.445 L 327.058 259.391 L 327.42 259.753 L 327.782 260.116 L 330.941 250.808 L 334.1 241.5 L 341.543 218.555 L 348.986 195.609 L 347.743 194.82 L 346.5 194.031 L 345.719 194.015 L 344.937 194 L 344.545 195.25 M 60.514 203.168 L 57.758 205.336 L 56.33 208.754 L 54.901 212.172 L 56.018 215.553 L 57.134 218.935 L 60.143 221.467 L 63.153 224 L 67.042 224 L 70.93 224 L 74.355 220.993 L 77.78 217.986 L 78.43 214.521 L 79.08 211.056 L 77.56 208.116 L 76.04 205.177 L 73.385 203.088 L 70.73 201 L 67 201 L 63.27 201 L 60.514 203.168 M 85.104 206.535 L 82 210.07 L 82 213.488 L 82 216.906 L 83.154 219.439 L 84.308 221.972 L 86.796 223.602 L 89.283 225.232 L 93.089 225.179 L 96.895 225.127 L 98.947 224.028 L 101 222.93 L 102.419 220.715 L 103.838 218.5 L 104.029 216 L 104.221 213.5 L 104.111 211.173 L 104 208.846 L 101.077 205.923 L 98.154 203 L 93.181 203 L 88.207 203 L 85.104 206.535 M 114.241 205.325 L 111.983 206.58 L 110.641 208.54 L 109.298 210.5 L 108.632 213.242 L 107.966 215.983 L 109.423 219.47 L 110.88 222.956 L 114.19 224.974 L 117.5 226.993 L 119.8 226.996 L 122.099 227 L 124.802 225.602 L 127.505 224.205 L 129.141 222.352 L 130.777 220.5 L 131.458 217.297 L 132.138 214.094 L 130.434 210.503 L 128.73 206.912 L 125.915 205.456 L 123.099 204 L 119.8 204.035 L 116.5 204.071 L 114.241 205.325 M 390.438 217.75 L 391.109 224.5 L 392.136 230.456 L 393.163 236.412 L 395.691 244.416 L 398.22 252.42 L 401.51 255.71 L 404.8 259 L 408.65 258.975 L 412.5 258.95 L 416.635 255.725 L 420.771 252.5 L 423.713 249 L 426.654 245.5 L 429.827 240.82 L 433 236.14 L 433 235.07 L 433 234 L 425.691 234 L 418.382 234 L 416.441 235.468 L 414.5 236.936 L 413 236.937 L 411.5 236.937 L 414.32 234.456 L 417.14 231.975 L 425.82 232.12 L 434.5 232.265 L 438.172 230.716 L 441.844 229.167 L 443.493 226.651 L 445.142 224.134 L 444.036 222.067 L 442.93 220 L 439.624 220 L 436.318 220 L 431.409 218.386 L 426.5 216.773 L 413 216.046 L 399.5 215.319 L 395.062 213.159 L 390.624 211 L 390.196 211 L 389.767 211 L 390.438 217.75 M 75 225.706 L 73.5 226.255 L 71.279 228.274 L 69.058 230.294 L 67.98 233.561 L 66.901 236.828 L 68.391 240.392 L 69.88 243.956 L 73.19 246.031 L 76.5 248.105 L 80.328 247.637 L 84.155 247.169 L 86.216 245.335 L 88.276 243.5 L 89.667 240.213 L 91.057 236.927 L 89.978 232.918 L 88.898 228.909 L 85.699 226.958 L 82.5 225.007 L 79.5 225.083 L 76.5 225.158 L 75 225.706 M 100.401 226.716 L 97.301 228.22 L 95.651 231.014 L 94 233.809 L 94 236.954 L 94 240.099 L 95.456 242.915 L 96.912 245.73 L 100.357 247.365 L 103.802 249 L 105.951 249 L 108.099 249 L 111.033 247.483 L 113.966 245.966 L 115.483 243.033 L 117 240.099 L 116.996 237.3 L 116.993 234.5 L 115.05 231.314 L 113.107 228.128 L 111.304 227.205 L 109.5 226.282 L 106.5 225.747 L 103.5 225.212 L 100.401 226.716 M 169.356 232.969 L 164.212 235.919 L 161.086 239.71 L 157.959 243.5 L 155.888 249 L 153.816 254.5 L 154.361 259.5 L 154.905 264.5 L 155.578 269.205 L 156.25 273.911 L 154.247 277.205 L 152.244 280.5 L 140.022 300.5 L 127.8 320.5 L 127.292 324.069 L 126.785 327.639 L 129.143 330.353 L 131.5 333.068 L 135 333.624 L 138.501 334.181 L 141.224 332.039 L 143.947 329.897 L 154.833 310.698 L 165.72 291.5 L 168.303 286.395 L 170.887 281.289 L 173.694 280.196 L 176.5 279.102 L 180.758 277.89 L 185.015 276.679 L 189.015 273.255 L 193.014 269.832 L 195.408 265.666 L 197.801 261.5 L 198.882 256.288 L 199.963 251.076 L 198.976 245.876 L 197.99 240.676 L 195.379 237.253 L 192.768 233.83 L 189.634 231.919 L 186.5 230.007 L 180.5 230.013 L 174.5 230.019 L 169.356 232.969 M 172.332 233.88 L 168.164 235.829 L 164.125 239.99 L 160.087 244.152 L 157.952 249.826 L 155.817 255.5 L 156.464 260 L 157.111 264.5 L 157.63 270 L 158.15 275.5 L 144.992 297 L 131.833 318.5 L 130.335 321.358 L 128.837 324.215 L 129.435 326.595 L 130.032 328.975 L 132.509 330.598 L 134.985 332.22 L 137.435 331.606 L 139.885 330.991 L 145.254 322.245 L 150.623 313.5 L 158.468 299 L 166.314 284.5 L 168.594 281.399 L 170.874 278.299 L 176.809 276.634 L 182.743 274.969 L 186.805 272.026 L 190.866 269.084 L 193.572 264.467 L 196.278 259.85 L 196.767 253.006 L 197.257 246.163 L 195.043 241.588 L 192.828 237.014 L 189.756 234.826 L 186.683 232.638 L 181.592 232.285 L 176.5 231.932 L 172.332 233.88 M 86.164 249.677 L 82.828 251.333 L 81.278 253.699 L 79.727 256.065 L 79.727 260.111 L 79.727 264.158 L 81.703 266.829 L 83.678 269.5 L 87.823 270.84 L 91.968 272.18 L 95.734 270.34 L 99.5 268.5 L 101.412 264.584 L 103.324 260.667 L 101.912 256.674 L 100.5 252.681 L 98 250.917 L 95.5 249.154 L 92.5 248.587 L 89.5 248.02 L 86.164 249.677 M 32.872 264.75 L 31.794 267.5 L 32.352 277 L 32.909 286.5 L 34.372 291.136 L 35.836 295.772 L 29.874 296.203 L 23.911 296.634 L 21.308 299.238 L 18.704 301.841 L 16.006 299.846 L 13.307 297.851 L 9.404 297.34 L 5.5 296.83 L 2.75 297.89 L 0 298.95 L 0 300.424 L 0 301.898 L 3.508 300.432 L 7.017 298.966 L 9.758 299.641 L 12.5 300.316 L 14.653 301.709 L 16.805 303.102 L 16.821 308.801 L 16.837 314.5 L 17.169 316.448 L 17.5 318.397 L 13.143 319.164 L 8.787 319.932 L 7.352 321.123 L 5.916 322.314 L 2.958 320.127 L 0 317.94 L 0 319.913 L 0 321.887 L 2.035 323.312 L 4.069 324.737 L 3.22 328.618 L 2.372 332.5 L 3.054 335.725 L 3.737 338.95 L 5.294 341.325 L 6.85 343.701 L 10.326 345.351 L 13.802 347 L 16.008 347 L 18.214 347 L 17.537 348.75 L 16.86 350.5 L 16.323 353.16 L 15.786 355.821 L 16.916 359.246 L 18.046 362.67 L 20.795 365.303 L 23.543 367.936 L 27.521 368.806 L 31.5 369.676 L 31.065 371.088 L 30.631 372.5 L 30.24 377 L 29.85 381.5 L 32.195 385 L 34.54 388.5 L 38.02 390.284 L 41.5 392.067 L 44.965 391.448 L 48.431 390.829 L 51.303 389.343 L 54.175 387.858 L 56.234 383.204 L 58.293 378.549 L 57.284 375.025 L 56.275 371.5 L 55.584 369.889 L 54.893 368.278 L 59.058 367.719 L 63.223 367.16 L 66.128 364.378 L 69.032 361.595 L 70.101 357.627 L 71.169 353.658 L 69.689 349.891 L 68.21 346.124 L 68.771 345.562 L 69.333 345 L 71.417 344.996 L 73.5 344.993 L 76.701 343.04 L 79.903 341.088 L 81.563 337.879 L 83.223 334.669 L 82.722 330.584 L 82.221 326.5 L 81.551 324.873 L 80.881 323.247 L 83.413 322.611 L 85.944 321.976 L 88.472 318.256 L 91 314.536 L 90.985 310.518 L 90.971 306.5 L 89.721 304.03 L 88.471 301.56 L 85.088 299.28 L 81.704 297 L 78.302 297 L 74.901 297 L 71.904 298.55 L 68.907 300.099 L 65.924 297.59 L 62.941 295.08 L 59.536 294.441 L 56.13 293.802 L 52.577 294.974 L 49.024 296.147 L 46.2 299.573 L 43.376 303 L 41.143 299.98 L 38.911 296.96 L 40.705 293.912 L 42.5 290.864 L 46.852 287.978 L 51.204 285.092 L 55.602 284.432 L 60 283.773 L 60 282.886 L 60 282 L 57.25 282.006 L 54.5 282.011 L 50.877 283.017 L 47.255 284.024 L 42.724 288.012 L 38.193 292 L 37.665 292 L 37.136 292 L 35.441 284.38 L 33.746 276.76 L 34.415 269.38 L 35.083 262 L 34.517 262 L 33.95 262 L 32.872 264.75 M 324.5 267.358 L 319.5 269.697 L 316.162 273.098 L 312.823 276.5 L 310.762 280.5 L 308.7 284.5 L 308.226 291.114 L 307.751 297.728 L 308.702 298.316 L 309.653 298.904 L 311.826 298.335 L 314 297.767 L 314 294.562 L 314 291.356 L 315.656 286.496 L 317.312 281.635 L 321.52 277.428 L 325.727 273.22 L 330.331 272.238 L 334.934 271.257 L 338.926 271.987 L 342.918 272.717 L 345.709 274.495 L 348.5 276.274 L 350.528 278.727 L 352.556 281.18 L 355.028 279.164 L 357.5 277.148 L 354 273.451 L 350.5 269.755 L 345.5 267.387 L 340.5 265.02 L 335 265.02 L 329.5 265.02 L 324.5 267.358 M 327 276.11 L 323.5 278.212 L 321.261 280.856 L 319.022 283.5 L 317.411 288.85 L 315.8 294.2 L 316.713 295.113 L 317.626 296.026 L 320.813 294.915 L 324 293.804 L 324.004 291.652 L 324.007 289.5 L 325.96 286.299 L 327.912 283.097 L 331.119 281.439 L 334.325 279.78 L 338.24 280.305 L 342.155 280.831 L 343.994 282.495 L 345.834 284.159 L 348.011 282.994 L 350.188 281.829 L 347.844 279.286 L 345.5 276.742 L 342.282 275.371 L 339.064 274 L 334.782 274.004 L 330.5 274.007 L 327 276.11 M 360.5 278.556 L 357.5 281.041 L 346.5 286.494 L 335.5 291.947 L 323 296.584 L 310.5 301.221 L 301 303.978 L 291.5 306.735 L 287 307.847 L 282.5 308.96 L 276.566 309.98 L 270.633 311 L 265.816 311 L 261 311 L 261 311.552 L 261 312.104 L 263.25 316.147 L 265.5 320.19 L 273.5 319.58 L 281.5 318.97 L 290.495 316.975 L 299.491 314.98 L 315.995 309.433 L 332.5 303.886 L 346.5 296.934 L 360.5 289.982 L 363.391 287.673 L 366.282 285.364 L 365.58 280.682 L 364.877 276 L 364.189 276.036 L 363.5 276.072 L 360.5 278.556 M 285.047 280.171 L 281.593 281.163 L 277.789 283.831 L 273.984 286.5 L 270.992 292.41 L 268 298.319 L 268 303.729 L 268 309.139 L 270.25 308.82 L 272.5 308.5 L 273.109 302.834 L 273.718 297.167 L 275.657 293.847 L 277.596 290.528 L 281.601 287.713 L 285.607 284.898 L 291.644 284.869 L 297.681 284.84 L 301.494 286.433 L 305.307 288.026 L 305.572 287.761 L 305.837 287.496 L 306.484 284.921 L 307.13 282.346 L 301.95 280.673 L 296.77 279 L 292.635 279.09 L 288.5 279.18 L 285.047 280.171 M 421.462 280.026 L 418.425 280.947 L 415.752 283.736 L 413.08 286.526 L 411.427 292.977 L 409.775 299.427 L 410.4 304.964 L 411.026 310.5 L 412.662 315.79 L 414.299 321.079 L 417.93 325.171 L 421.561 329.262 L 426.444 329.164 L 431.328 329.066 L 438.414 325.672 L 445.5 322.277 L 450.166 318.128 L 454.832 313.978 L 457.416 308.793 L 460 303.607 L 460 301.254 L 460 298.901 L 458.553 296.102 L 457.106 293.304 L 450.803 289.203 L 444.5 285.102 L 438.916 282.637 L 433.333 280.172 L 428.916 279.639 L 424.5 279.105 L 421.462 280.026 M 421.5 281.954 L 419.5 282.781 L 417.226 285.231 L 414.952 287.68 L 413.976 291.083 L 413 294.487 L 413 302.062 L 413 309.637 L 414.543 314.833 L 416.086 320.028 L 419.241 323.622 L 422.396 327.215 L 427.448 326.777 L 432.5 326.34 L 438 323.703 L 443.5 321.066 L 448.625 316.565 L 453.75 312.064 L 455.964 307.353 L 458.178 302.642 L 457.577 299.637 L 456.976 296.631 L 455.333 294.816 L 453.69 293 L 452.845 293 L 452 293 L 452 298 L 452 303 L 451 303 L 450 303 L 450 297.539 L 450 292.078 L 447.872 290.095 L 445.744 288.113 L 440.34 285.554 L 434.936 282.996 L 430.718 282.022 L 426.5 281.049 L 425 281.088 L 423.5 281.127 L 421.5 281.954 M 283.984 288.865 L 280.5 290.729 L 277.75 295.979 L 275 301.228 L 275 304.055 L 275 306.882 L 275.826 307.393 L 276.653 307.904 L 278.815 307.338 L 280.978 306.773 L 280.415 305.862 L 279.852 304.951 L 280.511 301.952 L 281.169 298.952 L 283.602 296.061 L 286.035 293.17 L 289.927 292.512 L 293.819 291.855 L 296.9 293.448 L 299.981 295.042 L 301.606 297.521 L 303.23 300 L 304.74 300 L 306.25 300 L 305.625 296.875 L 305 293.75 L 305 292.326 L 305 290.902 L 300.75 288.973 L 296.5 287.044 L 291.984 287.022 L 287.469 287 L 283.984 288.865 M 361.488 291.702 L 357.641 294.316 L 344.571 300.532 L 331.5 306.747 L 319.5 310.944 L 307.5 315.141 L 295.5 318.091 L 283.5 321.041 L 276.217 321.67 L 268.933 322.299 L 268.4 323.163 L 267.866 324.026 L 273.737 329.897 L 279.607 335.767 L 284.954 338.477 L 290.301 341.186 L 294.901 342.6 L 299.5 344.014 L 306.5 344.603 L 313.5 345.192 L 320.809 343.638 L 328.117 342.083 L 335.602 338.483 L 343.086 334.883 L 349.924 328.433 L 356.761 321.983 L 360.258 315.242 L 363.756 308.5 L 364.813 303.5 L 365.871 298.5 L 366.34 294.25 L 366.81 290 L 366.072 289.544 L 365.334 289.088 L 361.488 291.702 M 49.4 300.4 L 46 303.8 L 46.004 307.65 L 46.007 311.5 L 47.958 314.699 L 49.909 317.898 L 53.847 318.959 L 57.786 320.019 L 59.643 319.347 L 61.5 318.675 L 64.225 316.787 L 66.95 314.9 L 68.09 311.094 L 69.23 307.288 L 67.48 303.6 L 65.73 299.912 L 62.915 298.456 L 60.099 297 L 56.45 297 L 52.8 297 L 49.4 300.4 M 25.315 299.464 L 22.129 300.849 L 20.565 303.875 L 19 306.901 L 19 309.5 L 19 312.099 L 20.449 314.901 L 21.898 317.703 L 24.414 319.352 L 26.93 321 L 30.894 321 L 34.858 321 L 38.429 317.632 L 42 314.264 L 42 309.854 L 42 305.445 L 40.369 303.117 L 38.739 300.789 L 35.401 299.394 L 32.064 298 L 30.282 298.039 L 28.5 298.078 L 25.315 299.464 M 73.548 300.349 L 70.597 301.608 L 70.826 306.554 L 71.056 311.5 L 69.624 314.179 L 68.192 316.859 L 68.763 317.429 L 69.333 318 L 71.586 318 L 73.838 318 L 76.814 319.708 L 79.791 321.416 L 82.398 320.229 L 85.005 319.041 L 86.999 315.77 L 88.993 312.5 L 88.996 310.651 L 89 308.802 L 87.423 305.478 L 85.845 302.155 L 82.522 300.577 L 79.198 299 L 77.849 299.045 L 76.5 299.09 L 73.548 300.349 M 197.413 318.937 L 192.325 321.855 L 190.416 324.677 L 188.507 327.5 L 187.254 330.365 L 186 333.23 L 186 339.98 L 186 346.731 L 189.449 353.616 L 192.899 360.5 L 199.109 366.877 L 205.318 373.254 L 215.409 379.756 L 225.5 386.259 L 232.348 390.702 L 239.195 395.146 L 238.651 397.226 L 238.107 399.306 L 239.708 402.403 L 241.308 405.5 L 253.555 424.162 L 265.802 442.824 L 267.835 443.912 L 269.869 445 L 272.934 445 L 276 445 L 278 443 L 280 441 L 280 438.198 L 280 435.396 L 273.75 425.478 L 267.5 415.56 L 259.5 403.53 L 251.5 391.5 L 249.297 391.187 L 247.095 390.873 L 246.551 389.162 L 246.008 387.45 L 244.022 371.475 L 242.035 355.5 L 240.479 349.5 L 238.923 343.5 L 236.047 337.32 L 233.171 331.141 L 228.856 326.46 L 224.541 321.778 L 219.52 318.898 L 214.5 316.019 L 208.5 316.019 L 202.5 316.019 L 197.413 318.937 M 211.141 320.51 L 215.781 322.927 L 220.458 328.214 L 225.135 333.5 L 229.999 343.5 L 234.863 353.5 L 237.932 363.925 L 241 374.349 L 241 376.116 L 241 377.882 L 242.046 378.528 L 243.092 379.175 L 242.47 373.837 L 241.847 368.5 L 240.436 359.822 L 239.025 351.143 L 237.412 346.322 L 235.8 341.5 L 233.335 336.5 L 230.871 331.5 L 226.242 326.769 L 221.613 322.038 L 217.317 320.019 L 213.022 318 L 209.761 318.047 L 206.5 318.093 L 211.141 320.51 M 63.314 321.894 L 60.128 323.893 L 58.95 326.093 L 57.773 328.293 L 58.288 332.863 L 58.803 337.434 L 61.449 339.71 L 64.095 341.986 L 66.547 342.601 L 69 343.217 L 71.628 342.557 L 74.256 341.898 L 77.128 339.026 L 80 336.154 L 80 331.593 L 80 327.032 L 77.25 323.954 L 74.5 320.877 L 70.5 320.386 L 66.5 319.895 L 63.314 321.894 M 202 320.367 L 202 320.734 L 208.25 327.241 L 214.5 333.747 L 220.349 343.398 L 226.197 353.049 L 233.691 368.774 L 241.185 384.5 L 240.541 380.715 L 239.896 376.931 L 235.844 364.215 L 231.791 351.5 L 227.945 343.413 L 224.099 335.326 L 219.407 330.108 L 214.715 324.889 L 209.891 322.445 L 205.066 320 L 203.533 320 L 202 320 L 202 320.367 M 10.763 322.565 L 8.025 324.051 L 6.513 326.976 L 5 329.901 L 5 333.55 L 5 337.2 L 8.4 340.6 L 11.8 344 L 16.177 344 L 20.555 344 L 22.783 342.439 L 25.011 340.879 L 26.506 337.989 L 28 335.099 L 28 332.5 L 28 329.901 L 26.483 326.967 L 24.966 324.034 L 22.033 322.517 L 19.099 321 L 16.3 321.04 L 13.5 321.08 L 10.763 322.565 M 36.973 322.704 L 34.5 324.408 L 33.282 325.954 L 32.064 327.5 L 32.032 332.115 L 32 336.73 L 34.045 339.331 L 36.091 341.931 L 39.545 342.885 L 43 343.839 L 46.35 342.914 L 49.7 341.989 L 51.496 340.005 L 53.292 338.02 L 53.771 333.035 L 54.25 328.05 L 50.725 324.525 L 47.2 321 L 43.323 321 L 39.445 321 L 36.973 322.704 M 198.471 323.047 L 197.802 324.13 L 198.475 327.72 L 199.149 331.309 L 202.029 337.405 L 204.909 343.501 L 210.353 351.422 L 215.796 359.342 L 227.597 373.639 L 239.398 387.935 L 239.781 387.552 L 240.164 387.169 L 230.167 366.835 L 220.169 346.5 L 216.158 340.5 L 212.147 334.5 L 208.523 330.282 L 204.899 326.065 L 202.02 324.014 L 199.14 321.964 L 198.471 323.047 M 193.63 327.25 L 193.027 329.5 L 193.014 332.661 L 193 335.822 L 194.882 341.868 L 196.764 347.915 L 201.277 354.208 L 205.79 360.5 L 214.172 368.5 L 222.555 376.5 L 229.778 382.813 L 237 389.127 L 237 388.496 L 237 387.865 L 226.636 375.682 L 216.271 363.5 L 210.667 355.689 L 205.063 347.877 L 201.031 339.823 L 197 331.768 L 197 329.966 L 197 328.164 L 196.393 326.582 L 195.786 325 L 195.01 325 L 194.233 325 L 193.63 327.25 M 189.227 330.899 L 188 334.298 L 188 339.523 L 188 344.749 L 189.46 348.885 L 190.919 353.022 L 193.843 357.272 L 196.768 361.523 L 201.634 366.209 L 206.5 370.894 L 211 374.252 L 215.5 377.609 L 221 380.947 L 226.5 384.285 L 229 385.736 L 231.5 387.186 L 225.5 381.904 L 219.5 376.621 L 209.5 366.54 L 199.5 356.459 L 195.688 348.942 L 191.876 341.424 L 191.165 334.462 L 190.453 327.5 L 189.227 330.899 M 340 338.634 L 334.5 342.065 L 328.126 344.038 L 321.751 346.012 L 316.126 346.589 L 310.5 347.167 L 309.268 347.545 L 308.036 347.923 L 308.864 350.161 L 309.692 352.399 L 315.096 352.114 L 320.5 351.829 L 329.504 348.946 L 338.508 346.064 L 343.504 342.917 L 348.5 339.771 L 348.841 339.461 L 349.183 339.151 L 348.524 337.075 L 347.865 335 L 346.683 335.102 L 345.5 335.203 L 340 338.634 M 54.528 339.911 L 53.922 341.822 L 50.542 344.4 L 47.162 346.978 L 45.986 350.542 L 44.81 354.106 L 45.479 356.803 L 46.148 359.5 L 48.221 361.721 L 50.294 363.942 L 53.742 365.08 L 57.19 366.218 L 60.924 364.534 L 64.657 362.851 L 66.328 360.021 L 68 357.191 L 68 353.672 L 68 350.153 L 65.597 347.298 L 63.194 344.442 L 60.614 343.061 L 58.033 341.68 L 57.449 339.84 L 56.865 338 L 56 338 L 55.135 338 L 54.528 339.911 M 22.4 347.4 L 19 350.8 L 19 354.45 L 19 358.099 L 20.456 360.915 L 21.912 363.73 L 25.666 365.512 L 29.421 367.293 L 33.428 365.897 L 37.435 364.5 L 39.717 361.102 L 42 357.704 L 42 355.302 L 42 352.901 L 40.483 349.967 L 38.966 347.034 L 36.033 345.517 L 33.099 344 L 29.45 344 L 25.8 344 L 22.4 347.4 M 38.237 367.997 L 34.974 369.986 L 33.318 373.458 L 31.663 376.931 L 32.886 381.013 L 34.109 385.096 L 37.304 387.103 L 40.5 389.11 L 44.968 388.653 L 49.435 388.197 L 52.218 385.083 L 55 381.968 L 55 378.435 L 55 374.901 L 53.483 371.967 L 51.966 369.034 L 49.033 367.517 L 46.099 366 L 43.8 366.004 L 41.5 366.007 L 38.237 367.997 M 136.471 378.804 L 131.442 380.543 L 125.469 385.139 L 119.497 389.735 L 116.152 393.117 L 112.808 396.5 L 109.984 400.563 L 107.161 404.627 L 106.481 408.248 L 105.802 411.87 L 107.099 415.685 L 108.396 419.5 L 108.139 421.229 L 107.881 422.958 L 118.812 434.229 L 129.742 445.5 L 140.121 457.067 L 150.5 468.634 L 158.961 478.317 L 167.421 487.999 L 169.297 488.594 L 171.174 489.19 L 174.504 488.565 L 177.835 487.94 L 185.167 483.142 L 192.5 478.344 L 200.633 470.678 L 208.766 463.012 L 210.383 459.605 L 212 456.198 L 212 455.15 L 212 454.103 L 204.203 444.301 L 196.407 434.5 L 195.637 433.237 L 194.866 431.974 L 198.437 427.803 L 202.008 423.631 L 202.998 420.065 L 203.989 416.5 L 203.994 412.218 L 204 407.936 L 202.449 404.218 L 200.899 400.5 L 197.699 397.165 L 194.5 393.829 L 191.8 392.415 L 189.099 391 L 183.5 391 L 177.901 391 L 174.7 392.621 L 171.5 394.241 L 169.859 395.677 L 168.217 397.114 L 166.109 394.152 L 164 391.191 L 164 390.49 L 164 389.789 L 161.359 386.644 L 158.719 383.5 L 152.109 380.265 L 145.5 377.029 L 143.5 377.047 L 141.5 377.065 L 136.471 378.804 M 139.332 379.984 L 136.164 380.714 L 131.474 383.462 L 126.784 386.211 L 119.508 393.123 L 112.232 400.034 L 110.081 405.033 L 107.931 410.031 L 109.004 414.015 L 110.077 418 L 110.821 418 L 111.566 418 L 124.033 407.903 L 136.5 397.807 L 144.181 391.153 L 151.862 384.5 L 151.931 383.773 L 152 383.046 L 149.75 381.642 L 147.5 380.238 L 145 379.746 L 142.5 379.254 L 139.332 379.984 M 315.324 383.638 L 311.148 385.117 L 306.63 389.094 L 302.112 393.071 L 299.431 398.552 L 296.749 404.033 L 296.702 410.267 L 296.655 416.5 L 297.961 420.5 L 299.268 424.5 L 302.101 428.402 L 304.934 432.304 L 309.49 435.543 L 314.046 438.782 L 320.273 439.954 L 326.5 441.126 L 331.336 440.04 L 336.172 438.953 L 339.904 437.049 L 343.636 435.145 L 347.262 431.132 L 350.887 427.119 L 352.68 423.81 L 354.472 420.5 L 354.486 411.5 L 354.5 402.5 L 352.533 398.533 L 350.566 394.566 L 346.697 390.697 L 342.829 386.829 L 337.664 384.424 L 332.5 382.02 L 326 382.089 L 319.5 382.158 L 315.324 383.638 M 316.627 385.468 L 312.755 386.849 L 309.127 389.772 L 305.5 392.695 L 302.5 397.519 L 299.5 402.343 L 299.153 409.976 L 298.806 417.609 L 300.963 422.198 L 303.12 426.787 L 306.81 430.514 L 310.5 434.241 L 314.946 436.169 L 319.391 438.097 L 326.092 438.118 L 332.792 438.139 L 337.646 435.659 L 342.5 433.179 L 345.693 429.839 L 348.887 426.5 L 350.921 422 L 352.956 417.5 L 352.977 411.5 L 352.998 405.5 L 350.103 399.38 L 347.208 393.261 L 343.826 390.681 L 340.443 388.101 L 335.972 386.072 L 331.5 384.044 L 326 384.066 L 320.5 384.088 L 316.627 385.468 M 146.5 392.159 L 138.5 399.243 L 124.75 410.234 L 111 421.225 L 111 422.438 L 111 423.651 L 113.445 425.948 L 115.889 428.245 L 118.385 427.618 L 120.881 426.992 L 130.191 420.777 L 139.5 414.562 L 150.25 403.913 L 161 393.264 L 161 391.306 L 161 389.349 L 158.686 387.174 L 156.371 385 L 155.436 385.038 L 154.5 385.075 L 146.5 392.159 M 174.815 395.035 L 171.13 396.981 L 170.479 398.035 L 169.828 399.088 L 171.423 401.523 L 173.019 403.959 L 176.26 401.983 L 179.5 400.007 L 183.85 400.004 L 188.2 400 L 191.445 403.25 L 194.689 406.5 L 195.39 410.252 L 196.092 414.005 L 194.071 418.252 L 192.05 422.5 L 190.817 424.191 L 189.584 425.883 L 191.454 427.95 L 193.325 430.016 L 195.304 428.258 L 197.283 426.5 L 199.632 421.5 L 201.98 416.5 L 201.99 412.718 L 202 408.936 L 200.447 405.218 L 198.894 401.5 L 196.197 398.661 L 193.5 395.821 L 190.8 394.411 L 188.099 393 L 183.3 393.044 L 178.5 393.088 L 174.815 395.035 M 153.5 403.714 L 144.5 413.227 L 136.21 419.456 L 127.919 425.686 L 123.373 427.956 L 118.827 430.227 L 121.734 433.363 L 124.641 436.5 L 135.57 448.558 L 146.5 460.616 L 154.822 469.808 L 163.144 479 L 167.822 476.339 L 172.5 473.678 L 180 468.138 L 187.5 462.599 L 194.75 455.197 L 202 447.795 L 201.98 446.648 L 201.96 445.5 L 188.463 428 L 174.965 410.5 L 169.233 402.287 L 163.5 394.074 L 163 394.137 L 162.5 394.201 L 153.5 403.714 M 251.059 398.428 L 249.804 399.942 L 246.402 401.172 L 243 402.402 L 243.073 403.451 L 243.146 404.5 L 255.823 423.5 L 268.5 442.5 L 270.329 442.839 L 272.158 443.177 L 274.564 442.573 L 276.97 441.97 L 277.603 439.446 L 278.236 436.922 L 274.448 430.711 L 270.66 424.5 L 262.211 411.5 L 253.762 398.5 L 253.039 397.708 L 252.315 396.915 L 251.059 398.428 M 177.973 403.668 L 175.5 405.337 L 175.125 405.627 L 174.749 405.917 L 179.885 412.845 L 185.02 419.772 L 186.625 421.103 L 188.229 422.435 L 190.615 419.662 L 193 416.888 L 193 413.395 L 193 409.901 L 191.49 406.98 L 189.979 404.059 L 188.055 403.03 L 186.131 402 L 183.288 402 L 180.445 402 L 177.973 403.668 M 48.308 437.946 L 46.117 438.892 L 44.448 441.439 L 42.779 443.985 L 43.523 447.743 L 44.266 451.5 L 44.247 458.5 L 44.227 465.5 L 39.607 488.5 L 34.987 511.5 L 32.385 523.267 L 29.783 535.034 L 31.014 536.517 L 32.245 538 L 33.251 538 L 34.257 538 L 44.378 531.689 L 54.5 525.378 L 58 524.001 L 61.5 522.625 L 69.177 518.42 L 76.854 514.216 L 78.177 513.11 L 79.5 512.005 L 89.308 505.502 L 99.117 499 L 101.912 499 L 104.708 499 L 107.314 496.585 L 109.919 494.17 L 110.57 491.579 L 111.22 488.987 L 110.576 485.553 L 109.932 482.119 L 106.489 477.31 L 103.047 472.5 L 99.274 466.688 L 95.5 460.877 L 92.234 456.478 L 88.968 452.078 L 82.734 447.645 L 76.5 443.212 L 70.31 440.619 L 64.12 438.025 L 57.31 437.512 L 50.5 437 L 48.308 437.946 M 49.242 440.034 L 46.984 440.942 L 45.865 443.397 L 44.746 445.853 L 45.389 448.414 L 46.032 450.975 L 48.284 452.45 L 50.536 453.926 L 59.374 454.93 L 68.212 455.934 L 72.541 458.471 L 76.869 461.008 L 78.95 463.93 L 81.031 466.852 L 87.179 479.176 L 93.327 491.5 L 95.851 494.25 L 98.374 497 L 101.098 497 L 103.822 497 L 106.51 493.805 L 109.199 490.611 L 108.626 487.084 L 108.054 483.558 L 104.46 478.529 L 100.866 473.5 L 94.489 463.927 L 88.111 454.354 L 83.306 450.61 L 78.5 446.865 L 72.5 444.037 L 66.5 441.21 L 61.201 440.105 L 55.902 439 L 53.701 439.063 L 51.5 439.127 L 49.242 440.034 M 200.687 452.525 L 197.874 456.051 L 188.913 463.862 L 179.951 471.674 L 172.476 476.081 L 165 480.488 L 165 481.289 L 165 482.091 L 167.455 484.545 L 169.909 487 L 172.004 487 L 174.099 487 L 177.007 485.497 L 179.914 483.993 L 186.707 479.26 L 193.5 474.528 L 201.25 466.913 L 209 459.298 L 209 456.323 L 209 453.349 L 206.686 451.174 L 204.371 449 L 203.936 449 L 203.5 449 L 200.687 452.525 M 47.571 456.187 L 47.156 457.5 L 44.436 473.5 L 41.716 489.5 L 40.89 492.381 L 40.064 495.263 L 42.552 497.22 L 45.04 499.177 L 46.52 502.039 L 48 504.901 L 48 507.802 L 48 510.704 L 45.521 514.102 L 43.043 517.5 L 41.859 519.754 L 40.675 522.008 L 41.402 522.735 L 42.129 523.462 L 45.2 521.7 L 48.271 519.938 L 48.885 520.555 L 49.5 521.172 L 47.077 523.137 L 44.654 525.101 L 41.577 524.8 L 38.5 524.5 L 38.839 522.097 L 39.178 519.694 L 42.589 514.735 L 46 509.776 L 45.996 507.638 L 45.993 505.5 L 43.966 502.177 L 41.94 498.853 L 40.75 499.25 L 39.56 499.647 L 38.335 505.573 L 37.109 511.5 L 34.638 523 L 32.168 534.5 L 32.961 535.327 L 33.755 536.155 L 40.127 531.822 L 46.5 527.49 L 51.138 525.056 L 55.776 522.622 L 55.252 516.847 L 54.729 511.071 L 58.264 507.536 L 61.8 504 L 66.188 504 L 70.576 504 L 74.038 506.959 L 77.5 509.919 L 78.5 509.937 L 79.5 509.956 L 82 508.031 L 84.5 506.106 L 80.75 502.261 L 77 498.416 L 77 496.743 L 77 495.07 L 78.75 494.212 L 80.5 493.354 L 83.443 493.927 L 86.387 494.5 L 86.147 495.5 L 85.908 496.5 L 83.549 496.191 L 81.191 495.882 L 80.634 496.782 L 80.078 497.683 L 83.439 500.941 L 86.8 504.198 L 88.65 503.568 L 90.5 502.938 L 93.5 500.436 L 96.5 497.934 L 94.843 496.969 L 93.186 496.005 L 86.551 482.802 L 79.916 469.6 L 77.871 466.291 L 75.826 462.982 L 71.519 460.458 L 67.212 457.934 L 58.468 456.941 L 49.723 455.947 L 48.855 455.41 L 47.986 454.873 L 47.571 456.187 M 53.763 469.565 L 51.025 471.051 L 49.513 473.976 L 48 476.901 L 48 480 L 48 483.099 L 49.456 485.915 L 50.912 488.73 L 54.357 490.365 L 57.802 492 L 59.951 492 L 62.099 492 L 65.094 490.451 L 68.088 488.903 L 70.04 485.701 L 71.993 482.5 L 71.996 479.898 L 72 477.296 L 69.72 473.912 L 67.44 470.529 L 64.97 469.279 L 62.5 468.029 L 59.5 468.055 L 56.5 468.08 L 53.763 469.565 M 53.048 472.798 L 50 475.846 L 50 479.019 L 50 482.191 L 51.665 485.01 L 53.331 487.83 L 55.712 488.915 L 58.094 490 L 59.797 489.996 L 61.5 489.993 L 64.58 488.115 L 67.659 486.237 L 68.951 483.118 L 70.243 480 L 69.03 477.072 L 67.817 474.145 L 65.986 472.488 L 64.155 470.831 L 60.126 470.29 L 56.097 469.75 L 53.048 472.798 M 117.5 526.828 L 113.5 528.736 L 111.298 531.132 L 109.095 533.527 L 107.548 537.232 L 106 540.936 L 106.006 545.718 L 106.011 550.5 L 107.055 554.26 L 108.099 558.02 L 106.55 560.232 L 105 562.445 L 105 566.223 L 105 570 L 99.565 570 L 94.13 570 L 91.315 571.092 L 88.5 572.185 L 93.921 577.075 L 99.342 581.965 L 103.78 583.66 L 108.218 585.355 L 114.146 584.131 L 120.073 582.907 L 124.1 586.354 L 128.128 589.801 L 131.566 590.446 L 135.005 591.092 L 139.431 589.133 L 143.858 587.175 L 145.4 584.193 L 146.943 581.21 L 147.604 576.855 L 148.266 572.5 L 149.684 570.865 L 151.102 569.23 L 154.167 568.617 L 157.232 568.004 L 161.006 564.229 L 164.78 560.455 L 165.885 556.477 L 166.989 552.5 L 166.994 546.25 L 167 540 L 166.25 540.004 L 165.5 540.007 L 162 542.14 L 158.5 544.273 L 157.119 546.243 L 155.738 548.213 L 153.119 543.388 L 150.5 538.564 L 147.102 536.282 L 143.704 534 L 141.888 534 L 140.072 534 L 136.286 529.95 L 132.5 525.899 L 127 525.41 L 121.5 524.92 L 117.5 526.828 M 119.5 528.502 L 115.5 529.916 L 112.799 532.919 L 110.098 535.922 L 108.958 540.155 L 107.818 544.389 L 108.508 549.945 L 109.197 555.5 L 111.615 561.462 L 114.032 567.424 L 116.766 570.282 L 119.5 573.139 L 122.773 574.694 L 126.047 576.25 L 130.948 575.779 L 135.85 575.308 L 141.433 572.576 L 147.017 569.845 L 149.758 566.25 L 152.5 562.656 L 152.787 555.078 L 153.074 547.5 L 150.787 543.594 L 148.5 539.688 L 145.766 537.661 L 143.033 535.634 L 142.393 536.274 L 141.753 536.914 L 144.376 543.467 L 147 550.021 L 147 555.336 L 147 560.651 L 144.643 562.865 L 142.287 565.079 L 138.509 565.692 L 134.732 566.305 L 135.193 564.903 L 135.654 563.5 L 138.577 563.166 L 141.5 562.833 L 143.352 561.169 L 145.205 559.505 L 144.788 554.002 L 144.372 548.5 L 140.782 541 L 137.192 533.5 L 134.756 531.226 L 132.32 528.952 L 128.917 527.976 L 125.513 527 L 124.507 527.044 L 123.5 527.088 L 119.5 528.502 M 107.607 562.582 L 107 564.164 L 107 567.539 L 107 570.915 L 112.563 574.708 L 118.125 578.5 L 123.594 583.141 L 129.062 587.782 L 131.781 588.149 L 134.5 588.515 L 136.673 588.198 L 138.846 587.881 L 141.306 585.421 L 143.767 582.961 L 144.832 578.763 L 145.898 574.565 L 145.436 574.103 L 144.975 573.642 L 141.251 575.417 L 137.527 577.193 L 132.513 577.707 L 127.5 578.22 L 123.303 577.086 L 119.105 575.951 L 116.153 572.999 L 113.201 570.048 L 111.012 565.524 L 108.822 561 L 108.518 561 L 108.214 561 L 107.607 562.582 M 46.734 583.088 L 42.969 583.975 L 38.945 586.028 L 34.922 588.081 L 32.945 591.29 L 30.968 594.5 L 29.464 599.5 L 27.959 604.5 L 26.944 610.849 L 25.93 617.199 L 25.92 628.051 L 25.91 638.903 L 27.905 642.814 L 29.9 646.725 L 33.351 648.362 L 36.802 650 L 38.89 650 L 40.979 650 L 45.833 648.155 L 50.688 646.311 L 55.594 642.994 L 60.5 639.678 L 65.659 635.339 L 70.819 631 L 72.862 631 L 74.906 631 L 77.343 629.89 L 79.78 628.779 L 81.018 626.467 L 82.255 624.154 L 81.635 621.682 L 81.014 619.21 L 82.507 615.637 L 84 612.064 L 83.972 606.282 L 83.944 600.5 L 81.647 596 L 79.35 591.5 L 75.131 588.276 L 70.912 585.051 L 65.774 583.526 L 60.637 582 L 55.568 582.1 L 50.5 582.201 L 46.734 583.088 M 46.939 585.305 L 42.379 586.595 L 38.939 588.596 L 35.5 590.598 L 35.256 593.049 L 35.013 595.5 L 36.256 597.037 L 37.5 598.573 L 40.526 600.695 L 43.551 602.817 L 53.156 605.939 L 62.76 609.061 L 68.221 612.972 L 73.681 616.882 L 76.268 617.531 L 78.855 618.18 L 80.428 615.14 L 82 612.099 L 82 607.699 L 82 603.298 L 80.834 599.899 L 79.668 596.5 L 77.338 593.411 L 75.009 590.323 L 69.854 587.517 L 64.699 584.711 L 58.1 584.363 L 51.5 584.016 L 46.939 585.305 M 30.429 604.25 L 28.699 611.5 L 28.236 624.662 L 27.773 637.825 L 30.081 641.93 L 32.389 646.036 L 36.082 647.143 L 39.776 648.249 L 45.515 645.622 L 51.254 642.994 L 57.429 638.588 L 63.605 634.181 L 64.915 632.602 L 66.225 631.024 L 64.363 630.416 L 62.5 629.809 L 57.66 627.838 L 52.82 625.867 L 49.748 626.938 L 46.676 628.009 L 46.089 627.423 L 45.503 626.836 L 47.443 625.418 L 49.382 624 L 51.221 624 L 53.06 624 L 59 626.5 L 64.94 629 L 70.47 629 L 76 629 L 78.077 626.923 L 80.155 624.845 L 79.577 623.341 L 79 621.836 L 79 620.998 L 79 620.159 L 76.209 619.546 L 73.419 618.933 L 67.682 615.04 L 61.945 611.146 L 53.723 608.434 L 45.5 605.721 L 40.747 603.342 L 35.994 600.963 L 34.756 598.982 L 33.519 597 L 32.84 597 L 32.16 597 L 30.429 604.25 M 61.317 676.25 L 48.382 696.5 L 45.441 701.248 L 42.5 705.996 L 41.91 705.998 L 41.32 706 L 33.41 703.924 L 25.5 701.847 L 12.75 701.28 L 0 700.713 L 0 702.924 L 0 705.135 L 2.25 704.317 L 4.5 703.5 L 10.08 703.5 L 15.661 703.5 L 20.426 706.5 L 25.191 709.5 L 26.82 712.239 L 28.45 714.978 L 26.825 716.603 L 25.201 718.228 L 21.35 713.961 L 17.5 709.694 L 14.282 708.347 L 11.064 707 L 8.079 707 L 5.094 707 L 2.547 708.161 L 0 709.321 L 0 710.601 L 0 711.881 L 2.75 710.447 L 5.5 709.012 L 8 709.028 L 10.5 709.044 L 14.513 710.867 L 18.526 712.69 L 21.102 716.095 L 23.678 719.5 L 22.336 722.75 L 20.994 726 L 19.997 726 L 19 726 L 19 723.723 L 19 721.445 L 17.296 718.973 L 15.592 716.5 L 14.046 715.282 L 12.5 714.064 L 8.25 714.032 L 4 714 L 2 716 L 0 718 L 0 720.44 L 0 722.879 L 8.25 725.434 L 16.5 727.988 L 27.5 730.383 L 38.5 732.778 L 46 734.023 L 53.5 735.268 L 62.745 735.384 L 71.99 735.5 L 71.995 736.3 L 72 737.099 L 70.401 740.191 L 68.803 743.282 L 56.651 742.717 L 44.5 742.152 L 32 739.617 L 19.5 737.083 L 9.75 734.179 L 0 731.275 L 0 732.521 L 0 733.767 L 2.25 734.292 L 4.5 734.817 L 16.5 737.968 L 28.5 741.12 L 41.5 743.055 L 54.5 744.991 L 60.75 744.995 L 67 745 L 67 746.507 L 67 748.013 L 60.25 754.857 L 53.5 761.7 L 47.5 764.072 L 41.5 766.443 L 30.5 766.472 L 19.5 766.5 L 14.395 764.718 L 9.29 762.936 L 4.515 759.907 L -0.26 756.879 L 0.489 758.689 L 1.238 760.5 L 1.192 761.5 L 1.145 762.5 L 0.474 764.68 L -0.196 766.859 L 3.652 768.819 L 7.5 770.779 L 12.893 772.378 L 18.286 773.977 L 26.119 774.63 L 33.953 775.284 L 35.477 774.019 L 37 772.755 L 37 770.505 L 37 768.256 L 40.75 767.633 L 44.5 767.011 L 49.825 764.517 L 55.149 762.023 L 61.462 755.961 L 67.775 749.899 L 71.055 743.237 L 74.334 736.575 L 74.795 731.777 L 75.257 726.978 L 71.814 723.739 L 68.371 720.5 L 62.302 716.5 L 56.233 712.5 L 54.367 711.285 L 52.5 710.071 L 54.1 708.785 L 55.701 707.498 L 75.35 689.649 L 95 671.799 L 95 670.471 L 95 669.143 L 93.429 667.571 L 91.857 666 L 90.729 666 L 89.6 666 L 68.617 686.983 L 47.633 707.967 L 47.143 707.476 L 46.653 706.986 L 49.779 702.743 L 52.904 698.5 L 66.202 680.037 L 79.5 661.573 L 79.838 660.211 L 80.176 658.849 L 78.338 657.456 L 76.5 656.064 L 75.376 656.032 L 74.251 656 L 61.317 676.25 M 38.994 711.934 L 36.487 712.697 L 33.494 714.259 L 30.5 715.821 L 27.872 718.661 L 25.244 721.5 L 24.076 723.771 L 22.908 726.041 L 23.513 727.021 L 24.118 728 L 25.809 727.972 L 27.5 727.945 L 30 724.501 L 32.5 721.057 L 36 719.336 L 39.5 717.615 L 44.627 717.593 L 49.754 717.571 L 53.857 720.287 L 57.96 723.002 L 59.98 726.961 L 62 730.92 L 62 732.46 L 62 734 L 64.5 734 L 67 734 L 66.978 731.75 L 66.956 729.5 L 65.094 725.399 L 63.231 721.298 L 59.791 717.857 L 56.35 714.417 L 51.06 712.708 L 45.77 711 L 43.635 711.086 L 41.5 711.172 L 38.994 711.934 M 37.328 720.938 L 33.156 722.832 L 31.407 725.502 L 29.658 728.171 L 31.079 729.07 L 32.5 729.969 L 34.205 729.985 L 35.909 730 L 38.409 727.5 L 40.909 725 L 44.878 725 L 48.847 725 L 51.923 727.589 L 55 730.178 L 55 731.472 L 55 732.767 L 57.061 733.306 L 59.122 733.845 L 59.638 732.501 L 60.154 731.156 L 58.952 728.828 L 57.75 726.5 L 55.625 724.155 L 53.5 721.81 L 50.8 720.405 L 48.099 719 L 44.8 719.022 L 41.5 719.044 L 37.328 720.938" stroke="none" fill="#FF6B35" fill-rule="evenodd"/>
</svg>